<svg width="23" height="22" viewBox="0 0 23 22" fill="none"
    xmlns="http://www.w3.org/2000/svg">
    <path d="M20.0938 0.0625H2.90625C2.28465 0.0625 1.68851 0.30943 1.24897 0.748969C0.80943 1.18851 0.5625 1.78465 0.5625 2.40625L0.5625 19.5938C0.5625 20.2154 0.80943 20.8115 1.24897 21.251C1.68851 21.6906 2.28465 21.9375 2.90625 21.9375H9.60791V14.5005H6.53174V11H9.60791V8.33203C9.60791 5.29736 11.4146 3.62109 14.1816 3.62109C15.5068 3.62109 16.8926 3.85742 16.8926 3.85742V6.83594H15.3657C13.8613 6.83594 13.3921 7.76953 13.3921 8.72705V11H16.7505L16.2134 14.5005H13.3921V21.9375H20.0938C20.7154 21.9375 21.3115 21.6906 21.751 21.251C22.1906 20.8115 22.4375 20.2154 22.4375 19.5938V2.40625C22.4375 1.78465 22.1906 1.18851 21.751 0.748969C21.3115 0.30943 20.7154 0.0625 20.0938 0.0625Z" fill="#2F377C"/>
</svg>
