<svg width="35" height="53" viewBox="0 0 35 53" fill="none" xmlns="http://www.w3.org/2000/svg">
<g clip-path="url(#clip0)">
<path d="M33.4391 26.3539C30.8984 18.9382 26.095 12.8381 21.7812 6.41911C21.0535 5.32934 20.3257 4.23958 19.5979 3.14981C19.3862 2.83085 17.3748 0.199454 17.5071 -0.0131836C14.6886 4.27944 11.7245 8.47904 8.906 12.7717C6.07424 17.0909 3.25572 21.4234 1.57519 26.3406C-0.171504 31.4439 -0.449387 35.9625 0.715074 40.1887C2.73965 47.4848 10.0705 52.9868 17.7718 52.9868C18.6451 52.9868 19.5185 52.9204 20.3786 52.7742C26.8096 51.711 32.5393 46.5279 34.2992 40.1887C35.4637 35.9891 35.1858 31.4572 33.4391 26.3539ZM4.64513 38.7667C2.03833 32.042 6.88143 22.3404 6.88143 22.3404C1.2973 42.6606 16.6867 48.5613 16.6867 48.5613C12.8228 47.4317 7.25194 45.4913 4.64513 38.7667Z" fill="#2871FE"/>
</g>
<path d="M22.3087 26.3333C22.1262 25.8156 21.793 25.3644 21.3519 25.0377C20.9108 24.7109 20.3821 24.5237 19.8337 24.5H16.167C15.4376 24.5 14.7382 24.7897 14.2224 25.3055C13.7067 25.8212 13.417 26.5207 13.417 27.25C13.417 27.9793 13.7067 28.6788 14.2224 29.1945C14.7382 29.7103 15.4376 30 16.167 30H19.8337C20.563 30 21.2625 30.2897 21.7782 30.8055C22.2939 31.3212 22.5837 32.0207 22.5837 32.75C22.5837 33.4793 22.2939 34.1788 21.7782 34.6945C21.2625 35.2103 20.563 35.5 19.8337 35.5H16.167C15.6186 35.4763 15.0898 35.2891 14.6487 34.9623C14.2077 34.6356 13.8745 34.1844 13.692 33.6667" stroke="white" stroke-width="2" stroke-linecap="round" stroke-linejoin="round"/>
<path d="M18 35.5V38.25M18 21.75V24.5V21.75Z" stroke="white" stroke-width="2" stroke-linecap="round" stroke-linejoin="round"/>
<defs>
<clipPath id="clip0">
<rect width="35" height="53" fill="white"/>
</clipPath>
</defs>
</svg>
