<svg width="58" height="58" viewBox="0 0 58 58" fill="none" xmlns="http://www.w3.org/2000/svg">
<path d="M35.7337 9.33753C33.8118 6.66887 31.5385 4.39557 29.0016 2.62744C26.4757 4.39557 24.2024 6.66887 22.2695 9.33753C24.4769 8.89825 26.7283 8.66762 29.0016 8.66762C31.2749 8.66762 33.5263 8.88726 35.7337 9.33753Z" fill="#2871FE"/>
<path d="M13.9219 30.2793C8.71632 31.685 4.89453 36.4403 4.89453 42.0851C4.89453 44.7647 5.75114 47.2357 7.21176 49.2455C8.67239 46.4889 11.4619 44.5341 14.7236 44.2376C14.1854 41.1077 13.8999 34.3756 13.8999 31.5313C13.8999 31.1139 13.9109 30.6856 13.9219 30.2793Z" fill="#2871FE"/>
<path d="M44.079 30.2793C44.09 30.6966 44.101 31.1139 44.101 31.5313C44.101 34.3866 43.8155 41.1077 43.2773 44.2376C46.539 44.5231 49.3285 46.478 50.7891 49.2455C52.2498 47.2357 53.1064 44.7538 53.1064 42.0851C53.1064 36.4403 49.2846 31.685 44.079 30.2793Z" fill="#2871FE"/>
<path d="M24.1355 46.3363C24.1135 46.2265 24.0916 46.1167 24.0696 46.0068H19.6328V50.2679C19.6328 51.7066 22.7298 52.5632 26.4198 52.8268C25.9146 51.7944 25.4753 50.7292 25.0909 49.6529C24.6956 48.5547 24.3771 47.4345 24.1355 46.3363Z" fill="#2871FE"/>
<path d="M34.995 46.3363C34.4349 48.8842 33.5454 51.1026 32.7656 52.7169C35.8955 52.3655 38.3555 51.5418 38.3555 50.2679V46.0068H35.0609C35.0499 46.1167 35.0279 46.2265 34.995 46.3363Z" fill="#2871FE"/>
<path d="M33.7884 44.4705C33.9532 43.4382 34.041 42.3619 34.041 41.2527C34.041 33.5213 29.5713 27.2505 29.5713 27.2505C29.5713 27.2505 27.4737 30.1827 26.1558 34.5207C25.5518 36.5194 25.1016 38.8147 25.1016 41.2527C25.1016 42.3619 25.1894 43.4382 25.3542 44.4705C25.431 44.9976 25.5299 45.5138 25.6397 46.008C25.8813 47.1282 26.1998 48.1715 26.5402 49.1379C27.0674 50.6205 27.6604 51.9054 28.1875 52.9048C28.9563 54.3874 29.5823 55.255 29.5823 55.255C29.5823 55.255 30.2083 54.3764 30.999 52.8608C31.8556 51.2135 32.8989 48.8194 33.5139 46.008C33.6127 45.5138 33.7116 44.9976 33.7884 44.4705Z" fill="#2871FE"/>
<path d="M36.9735 11.1935C34.4256 10.5455 31.746 10.2051 29.0004 10.2051C26.2549 10.2051 23.5753 10.5455 21.0274 11.1935C17.7767 16.41 15.745 22.8675 15.4704 29.907C15.4704 29.929 15.4704 29.951 15.4704 29.9729C15.4485 30.4891 15.4375 31.0162 15.4375 31.5434C15.4375 34.4207 15.734 41.3504 16.2831 44.2497C16.2831 44.2717 16.2941 44.2937 16.2941 44.3156C16.3051 44.3815 16.3161 44.4364 16.3271 44.4913H23.7949C23.6412 43.4151 23.5643 42.3388 23.5643 41.2736C23.5643 38.9453 23.9377 36.5293 24.6845 34.0912C26.0572 29.5666 28.2207 26.5026 28.3196 26.3818L29.5715 24.6246L30.8235 26.3818C31.0212 26.6563 35.5788 33.1468 35.5788 41.2736C35.5788 42.3278 35.5019 43.4151 35.3481 44.4913H41.6848C41.6958 44.4145 41.7178 44.3376 41.7288 44.2497C42.2779 41.3614 42.5744 34.4207 42.5744 31.5434C42.5744 31.0162 42.5634 30.5001 42.5414 29.9729C42.2669 22.9004 40.2352 16.421 36.9735 11.1935ZM29.0004 23.3617C26.5295 23.3617 24.5307 21.3629 24.5307 18.892C24.5307 16.421 26.5295 14.4222 29.0004 14.4222C31.4714 14.4222 33.4702 16.421 33.4702 18.892C33.4702 21.3629 31.4714 23.3617 29.0004 23.3617Z" fill="#2871FE" fill-opacity="0.7"/>
</svg>
