<svg width="23" height="23" viewBox="0 0 23 23" fill="none" xmlns="http://www.w3.org/2000/svg">
<path d="M14.3906 15.8701C14.5225 16.002 14.5225 16.2021 14.3906 16.3193C13.1943 17.5156 9.81055 17.5205 8.60938 16.3193C8.47754 16.2021 8.47754 16.002 8.60938 15.8701C8.72656 15.7529 8.92676 15.7529 9.04395 15.8701C9.95703 16.8076 12.999 16.8271 13.9512 15.8701C14.0684 15.7578 14.2734 15.7578 14.3906 15.8701ZM9.93262 13.2432C9.93262 12.5156 9.35156 11.9346 8.63867 11.9346C7.91113 11.9346 7.33008 12.5156 7.33008 13.2432C7.33008 13.9561 7.91113 14.5371 8.63867 14.5371C9.35156 14.5371 9.93262 13.9561 9.93262 13.2432ZM14.3613 11.9346C13.6484 11.9346 13.0674 12.5156 13.0674 13.2432C13.0674 13.9561 13.6484 14.5371 14.3613 14.5371C15.0889 14.5371 15.6699 13.9561 15.6699 13.2432C15.6699 12.5156 15.0889 11.9346 14.3613 11.9346ZM22.4375 2.90625V20.0938C22.4375 21.3877 21.3877 22.4375 20.0938 22.4375H2.90625C1.6123 22.4375 0.5625 21.3877 0.5625 20.0938V2.90625C0.5625 1.6123 1.6123 0.5625 2.90625 0.5625H20.0938C21.3877 0.5625 22.4375 1.6123 22.4375 2.90625ZM17.5693 9.77148C17.0762 9.77148 16.6416 9.97656 16.3193 10.2939C15.1426 9.47852 13.5605 8.95605 11.8027 8.89746L12.7158 4.78613L15.6211 5.44043C15.6211 6.15332 16.2021 6.73437 16.915 6.73437C17.6426 6.73437 18.2236 6.13867 18.2236 5.42578C18.2236 4.71289 17.6426 4.11719 16.915 4.11719C16.4072 4.11719 15.9727 4.41992 15.7529 4.84473L12.5449 4.13184C12.3838 4.08789 12.2275 4.20508 12.1836 4.36621L11.1826 8.89746C9.43945 8.9707 7.87207 9.49316 6.69531 10.3086C6.37793 9.97656 5.92383 9.77148 5.43066 9.77148C3.59961 9.77148 2.99902 12.2324 4.67383 13.0674C4.61523 13.3311 4.58594 13.6045 4.58594 13.8828C4.58594 16.6416 7.69629 18.8779 11.5146 18.8779C15.3477 18.8779 18.458 16.6416 18.458 13.8828C18.458 13.6045 18.4287 13.3164 18.3555 13.0527C19.9961 12.2129 19.3906 9.77148 17.5693 9.77148Z" fill="#2F377C"/>
</svg>
