<svg width="57" height="57" viewBox="0 0 57 57" fill="none" xmlns="http://www.w3.org/2000/svg">
<g clip-path="url(#clip0)">
<path d="M46.129 28.9579C46.129 19.4819 38.2196 11.7729 28.4987 11.7729C18.7766 11.7729 10.8672 19.4819 10.8672 28.9579C10.8672 38.4339 18.7765 46.144 28.4987 46.144C38.2196 46.144 46.129 38.4339 46.129 28.9579ZM26.8575 39.0544V37.3976C25.6803 37.3976 24.513 37.2995 23.1124 36.3261C22.3673 35.8085 22.1834 34.7853 22.701 34.0412C23.2185 33.2969 24.2405 33.112 24.9856 33.6296C25.4287 33.9382 25.9364 34.1101 26.4145 34.1145H30.362C30.3708 34.1145 30.3784 34.1156 30.3872 34.1156C31.3423 34.1156 32.1377 33.3394 32.1377 32.3569C32.1377 31.3884 31.3521 30.5994 30.3872 30.5994H26.6104C23.8346 30.5994 21.5764 28.3384 21.5764 25.5588C21.5764 23.0077 23.5086 20.5182 26.8577 20.5182V18.8624C26.8577 17.9562 27.5918 17.2209 28.4989 17.2209C29.4049 17.2209 30.1401 17.9562 30.1401 18.8624V20.5182C31.9079 20.5182 33.4149 21.2483 34.4859 22.3939C35.1051 23.0559 35.0701 24.0945 34.4082 24.7139C33.7462 25.3334 32.708 25.2982 32.0887 24.6362C31.5986 24.1119 30.9301 23.8078 30.2528 23.8013H26.6095C25.645 23.8013 24.859 24.587 24.859 25.5588C24.859 26.5283 25.6446 27.3163 26.6106 27.3163H30.3874C33.1621 27.3163 35.4203 29.5783 35.4203 32.3569C35.4203 34.9363 33.4602 37.3976 30.1401 37.3976V39.0544C30.1401 39.9605 29.4049 40.6959 28.4989 40.6959C27.5916 40.6959 26.8575 39.9605 26.8575 39.0544Z" fill="#2871FE" fill-opacity="0.85"/>
<path d="M13.3269 48.8299L12.4345 42.524C12.3074 41.6265 11.476 41 10.5793 41.1288C9.6817 41.2557 9.05708 42.0864 9.18413 42.9839L9.38394 44.3961C7.67981 42.293 6.32289 39.9082 5.3829 37.338C-1.27103 19.1455 14.7984 0.797725 33.5338 4.79428C34.4202 4.98294 35.2923 4.41807 35.4816 3.53148C35.6708 2.64488 35.1054 1.77285 34.2188 1.58364C13.0627 -2.93008 -5.28751 17.7215 2.29985 38.4656C3.36284 41.3722 4.8966 44.0705 6.82342 46.4512L5.23736 46.1465C4.34682 45.9757 3.48671 46.5585 3.31568 47.4488C3.14464 48.3391 3.72768 49.1994 4.61788 49.3704L11.2519 50.6448C12.4248 50.976 13.4888 49.9722 13.3269 48.8299Z" fill="#2871FE" fill-opacity="0.85"/>
<path d="M54.6947 19.2807C53.6317 16.3741 52.098 13.6758 50.1712 11.2951L51.7573 11.5998C52.6471 11.7705 53.508 11.1878 53.679 10.2976C53.85 9.40724 53.267 8.54691 52.3768 8.37587L45.7415 7.10113C44.5619 6.76913 43.5069 7.78123 43.6678 8.91634L44.5602 15.2223C44.6876 16.1226 45.5215 16.745 46.4153 16.6175C47.313 16.4906 47.9376 15.6599 47.8106 14.7624L47.6107 13.3502C49.3149 15.4533 50.6718 17.8381 51.6118 20.4082C58.2653 38.5997 42.1982 56.9497 23.4609 52.952C22.5746 52.7629 21.7022 53.3282 21.513 54.2148C21.3238 55.1014 21.8893 55.9735 22.7759 56.1627C43.9316 60.6766 62.2821 40.025 54.6947 19.2807Z" fill="#2871FE" fill-opacity="0.85"/>
</g>
<defs>
<clipPath id="clip0">
<rect width="55.8857" height="55.8857" fill="white" transform="translate(0.554688 0.930176)"/>
</clipPath>
</defs>
</svg>
