<svg width="25" height="21" viewBox="0 0 25 21" fill="none" xmlns="http://www.w3.org/2000/svg">
<path d="M22.4302 5.40791C22.446 5.62998 22.446 5.8521 22.446 6.07417C22.446 12.8476 17.2906 20.6522 7.86802 20.6522C4.96509 20.6522 2.26841 19.8114 0 18.3521C0.412451 18.3997 0.808984 18.4155 1.2373 18.4155C3.63257 18.4155 5.83755 17.6065 7.59834 16.2265C5.3458 16.1789 3.45811 14.7036 2.80771 12.6731C3.125 12.7207 3.44224 12.7524 3.77539 12.7524C4.2354 12.7524 4.69546 12.689 5.12373 12.578C2.77603 12.102 1.01519 10.0399 1.01519 7.54941V7.48599C1.69727 7.8667 2.49048 8.10464 3.33115 8.13633C1.95107 7.21626 1.04692 5.64585 1.04692 3.86919C1.04692 2.91743 1.30068 2.04497 1.74487 1.28354C4.26709 4.39268 8.05835 6.4231 12.3096 6.64522C12.2303 6.2645 12.1827 5.86797 12.1827 5.47139C12.1827 2.64775 14.4669 0.347656 17.3064 0.347656C18.7816 0.347656 20.1141 0.966309 21.05 1.96567C22.208 1.7436 23.3184 1.31528 24.302 0.728369C23.9212 1.91812 23.1122 2.91748 22.0494 3.55195C23.0805 3.44097 24.0799 3.15537 24.9999 2.75884C24.302 3.77402 23.4295 4.67817 22.4302 5.40791Z" fill="#2F377C"/>
</svg>
