<svg width="69" height="69" viewBox="0 0 69 69" fill="none"
    xmlns="http://www.w3.org/2000/svg">
    <defs>
        <linearGradient id="paint0_linear" x1="54.4377" y1="39.1742" x2="39.9483" y2="38.8843" gradientUnits="userSpaceOnUse">
            <stop offset="1" stop-color="#5FB2FF"/>
        </linearGradient>
        <linearGradient id="paint1_linear" x1="25.1385" y1="40.2855" x2="13.7417" y2="40.0746" gradientUnits="userSpaceOnUse">
            <stop stop-color="#3887FE"/>
            <stop offset="0.497238" stop-color="#3BA0FF"/>
            <stop offset="1" stop-color="#5FB2FF"/>
        </linearGradient>
        <linearGradient id="paint2_linear" x1="42.8683" y1="37.7714" x2="34.3937" y2="37.6271" gradientUnits="userSpaceOnUse">
            <stop stop-color="#3887FE"/>
            <stop offset="0.497238" stop-color="#3BA0FF"/>
            <stop offset="1" stop-color="#5FB2FF"/>
        </linearGradient>
        <linearGradient id="paint3_linear" x1="36.94" y1="39.1732" x2="22.4369" y2="38.8827" gradientUnits="userSpaceOnUse">
            <stop offset="1" stop-color="#5FB2FF"/>
        </linearGradient>
        <clipPath id="clip0">
            <rect width="41.2317" height="24.4024" fill="white" transform="translate(13.8842 22.2988)"/>
        </clipPath>
    </defs>
    <circle cx="34.5" cy="34.5" r="34.5" fill="#FDFDFD"/>
    <g clip-path="url(#clip0)">
        <path d="M54.6402 42.2592L45.9075 24.0458C45.8828 23.9963 45.8617 23.9468 45.837 23.8973L45.8194 23.8654C45.7795 23.7923 45.736 23.7204 45.689 23.6497L45.6679 23.6214C45.6209 23.5507 45.5704 23.4835 45.5163 23.4198L45.4952 23.3951C45.4411 23.329 45.3836 23.2666 45.3225 23.2076L45.2978 23.1829C45.2438 23.1286 45.1862 23.0768 45.1252 23.0273L45.0758 22.9848L45.0371 22.953L44.9384 22.8823L44.8327 22.808C44.7692 22.7656 44.7058 22.7267 44.6388 22.6913L44.6071 22.6524C43.9991 22.3168 43.2909 22.2126 42.6125 22.3588C42.1661 22.4432 41.7443 22.6271 41.3783 22.8971C41.0123 23.1671 40.7115 23.5161 40.498 23.9185C40.4769 23.9574 40.4593 23.9998 40.4381 24.0387L40.3888 24.1377L40.3677 24.1802C40.0842 24.8325 40.0516 25.567 40.276 26.242V26.242C40.3007 26.3127 40.3254 26.3835 40.3536 26.4542L40.4099 26.5815L40.4381 26.6452L43.1693 32.3497L49.1884 44.894C49.3608 45.2532 49.602 45.5749 49.8983 45.8405C50.1945 46.1062 50.54 46.3108 50.915 46.4424C51.29 46.5741 51.6872 46.6304 52.0839 46.608C52.4806 46.5857 52.869 46.4851 53.227 46.3121C53.585 46.1391 53.9055 45.8971 54.1702 45.5998C54.435 45.3025 54.6388 44.9557 54.77 44.5794C54.9012 44.203 54.9573 43.8044 54.935 43.4063C54.9127 43.0082 54.8125 42.6184 54.6402 42.2592V42.2592Z" fill="url(#paint0_linear)"/>
        <path d="M22.323 26.2597C22.3019 26.2138 22.2772 26.1536 22.2525 26.09C22.2279 26.0263 22.2138 25.9804 22.1926 25.9273L14.1837 42.2592C13.8356 42.9847 13.7889 43.8193 14.0539 44.5794C14.3189 45.3395 14.874 45.9628 15.5969 46.3122C16.3198 46.6616 17.1515 46.7084 17.9089 46.4425C18.6663 46.1765 19.2873 45.6195 19.6355 44.894L25.5334 32.9686L22.3618 26.3658L22.323 26.2597Z" fill="url(#paint1_linear)"/>
        <path d="M39.9551 26.5047C39.9339 26.4552 39.9057 26.395 39.881 26.3314C39.8564 26.2677 39.8423 26.2253 39.8247 26.1722L34.5001 35.8557L37.5096 42.1296C37.651 42.3687 37.7691 42.621 37.862 42.8829L43.162 33.2136L39.9903 26.6108L39.9551 26.5047Z" fill="url(#paint2_linear)"/>
        <path d="M37.0092 42.001L34.4119 36.5901L28.3963 24.0458C28.3717 23.9963 28.3505 23.9468 28.3258 23.8973L28.3082 23.8654C28.2683 23.7923 28.2248 23.7204 28.1778 23.6497L28.1567 23.6214C28.1097 23.5507 28.0592 23.4835 28.0052 23.4198L27.9805 23.3986C27.9265 23.3326 27.8689 23.2701 27.8078 23.2112L27.7831 23.1864C27.7291 23.1322 27.6715 23.0803 27.6105 23.0308L27.5611 22.9884L27.5224 22.9565L27.4237 22.8858L27.318 22.8115C27.2545 22.7691 27.1911 22.7302 27.1241 22.6948L27.0959 22.6524C26.4879 22.3168 25.7797 22.2126 25.1013 22.3588C24.6549 22.4432 24.2332 22.6271 23.8672 22.8971C23.5012 23.1671 23.2003 23.5161 22.9869 23.9185C22.9657 23.9574 22.9481 23.9998 22.927 24.0387L22.8776 24.1342L22.8565 24.1767C22.5731 24.8289 22.5404 25.5635 22.7649 26.2385V26.2385C22.7895 26.3092 22.8142 26.3799 22.8424 26.4507L22.8988 26.578L22.927 26.6417L25.6546 32.3285L31.6772 44.894H31.6949C31.8723 45.2637 32.1227 45.5934 32.4308 45.8632C32.7389 46.133 33.0983 46.3373 33.4873 46.4637C33.8764 46.5902 34.2869 46.6361 34.6941 46.5987C35.1013 46.5614 35.4968 46.4415 35.8565 46.2464C36.2162 46.0513 36.5328 45.785 36.787 45.4636C37.0413 45.1422 37.2279 44.7724 37.3357 44.3765C37.4434 43.9807 37.47 43.567 37.4139 43.1605C37.3578 42.754 37.2201 42.3632 37.0092 42.0117V42.001Z" fill="url(#paint3_linear)"/>
    </g>

</svg>
