<svg width="40" height="40" viewBox="0 0 40 40" fill="none"
    xmlns="http://www.w3.org/2000/svg">
    <defs>
        <linearGradient id="paint0_linear" x1="20.5935" y1="36.7569" x2="20.5812" y2="2.9512" gradientUnits="userSpaceOnUse">
            <stop stop-color="#2B98D9"/>
            <stop offset="0.4" stop-color="#2085E2"/>
            <stop offset="0.56" stop-color="#1C70CE"/>
            <stop offset="0.81" stop-color="#1854B5"/>
            <stop offset="0.95" stop-color="#164AAB"/>
        </linearGradient>
        <clipPath id="clip0">
            <rect width="23.9024" height="14.1463" fill="white" transform="translate(8.04883 12.9264)"/>
        </clipPath>
    </defs>
    <circle cx="20" cy="20" r="20" fill="url(#paint0_linear)"/>
    <g clip-path="url(#clip0)">
        <path d="M31.6755 24.4979L26.6131 13.9394C26.5988 13.9107 26.5865 13.882 26.5722 13.8533L26.562 13.8349C26.5388 13.7925 26.5136 13.7508 26.4864 13.7098L26.4741 13.6934C26.4469 13.6524 26.4176 13.6134 26.3863 13.5765L26.374 13.5622C26.3427 13.5239 26.3093 13.4877 26.2739 13.4535L26.2596 13.4392C26.2283 13.4077 26.1949 13.3777 26.1595 13.349L26.1309 13.3244L26.1085 13.3059L26.0513 13.2649L25.99 13.2219C25.9532 13.1973 25.9164 13.1747 25.8776 13.1542L25.8592 13.1316C25.5067 12.9371 25.0962 12.8767 24.7029 12.9615C24.4441 13.0104 24.1996 13.117 23.9875 13.2735C23.7753 13.43 23.6009 13.6324 23.4771 13.8656C23.4649 13.8882 23.4547 13.9128 23.4424 13.9353L23.4138 13.9927L23.4016 14.0173C23.2373 14.3955 23.2183 14.8213 23.3484 15.2126V15.2126C23.3627 15.2536 23.377 15.2946 23.3934 15.3356L23.4261 15.4094L23.4424 15.4463L25.0257 18.7533L28.515 26.0253C28.615 26.2336 28.7548 26.42 28.9265 26.5741C29.0983 26.7281 29.2986 26.8466 29.516 26.923C29.7334 26.9993 29.9636 27.032 30.1936 27.019C30.4236 27.006 30.6487 26.9477 30.8563 26.8475C31.0638 26.7472 31.2496 26.6068 31.403 26.4345C31.5565 26.2621 31.6747 26.0611 31.7507 25.843C31.8268 25.6248 31.8593 25.3937 31.8464 25.1629C31.8335 24.9321 31.7754 24.7062 31.6755 24.4979V24.4979Z" fill="#FDFDFD"/>
        <path d="M12.9409 15.223C12.9287 15.1963 12.9144 15.1615 12.9001 15.1246C12.8858 15.0877 12.8776 15.061 12.8653 15.0303L8.22252 24.4981C8.02069 24.9186 7.99362 25.4025 8.14725 25.8431C8.30089 26.2837 8.62264 26.645 9.04174 26.8476C9.46084 27.0501 9.94295 27.0773 10.382 26.9231C10.8211 26.7689 11.1811 26.446 11.383 26.0255L14.8021 19.1122L12.9634 15.2845L12.9409 15.223Z" fill="#FDFDFD"/>
        <path d="M23.1623 15.3652C23.1501 15.3365 23.1337 15.3016 23.1194 15.2647C23.1051 15.2278 23.0969 15.2032 23.0867 15.1725L20 20.7861L21.7447 24.4232C21.8267 24.5618 21.8951 24.708 21.949 24.8598L25.0214 19.2544L23.1827 15.4267L23.1623 15.3652Z" fill="#FDFDFD"/>
        <path d="M21.4546 24.3483L19.949 21.2115L16.4617 13.9394C16.4474 13.9107 16.4351 13.882 16.4208 13.8533L16.4106 13.8349C16.3875 13.7925 16.3623 13.7508 16.335 13.7098L16.3228 13.6934C16.2955 13.6524 16.2663 13.6134 16.2349 13.5765L16.2206 13.5642C16.1893 13.526 16.1559 13.4898 16.1205 13.4556L16.1062 13.4412C16.0749 13.4098 16.0415 13.3797 16.0061 13.351L15.9775 13.3264L15.955 13.308L15.8978 13.267L15.8366 13.2239C15.7998 13.1993 15.763 13.1768 15.7242 13.1563L15.7078 13.1316C15.3554 12.9371 14.9448 12.8767 14.5515 12.9615C14.2928 13.0104 14.0483 13.117 13.8361 13.2735C13.6239 13.43 13.4495 13.6324 13.3258 13.8656C13.3135 13.8882 13.3033 13.9128 13.291 13.9353L13.2624 13.9907L13.2502 14.0153C13.0859 14.3934 13.067 14.8192 13.1971 15.2105V15.2105C13.2114 15.2516 13.2257 15.2926 13.242 15.3336L13.2747 15.4074L13.291 15.4443L14.8723 18.741L18.3637 26.0253H18.3739C18.4768 26.2396 18.6219 26.4308 18.8005 26.5872C18.9791 26.7436 19.1875 26.862 19.413 26.9353C19.6385 27.0086 19.8765 27.0352 20.1126 27.0136C20.3486 26.9919 20.5779 26.9225 20.7864 26.8093C20.995 26.6962 21.1785 26.5419 21.3259 26.3555C21.4733 26.1692 21.5814 25.9548 21.6439 25.7254C21.7064 25.4959 21.7218 25.2561 21.6893 25.0204C21.6567 24.7848 21.5769 24.5582 21.4546 24.3544V24.3483Z" fill="#FDFDFD"/>
    </g>

</svg>
