<svg width="24" height="24" viewBox="0 0 24 24" fill="none"
    xmlns="http://www.w3.org/2000/svg">
    <defs>
        <linearGradient id="paint0_linear" x1="22.6038" y1="16.4162" x2="0.3632" y2="15.6854" gradientUnits="userSpaceOnUse">
            <stop stop-color="#3887FE"/>
            <stop offset="0.497238" stop-color="#3BA0FF"/>
            <stop offset="1" stop-color="#5FB2FF"/>
        </linearGradient>
        <linearGradient id="paint1_linear" x1="16.0784" y1="10.1985" x2="7.52431" y2="9.91746" gradientUnits="userSpaceOnUse">
            <stop stop-color="#3887FE"/>
            <stop offset="0.497238" stop-color="#3BA0FF"/>
            <stop offset="1" stop-color="#5FB2FF"/>
        </linearGradient>
        <linearGradient id="paint2_linear" x1="20.6206" y1="17.3941" x2="3.28987" y2="15.4492" gradientUnits="userSpaceOnUse">
            <stop stop-color="#3887FE"/>
            <stop offset="0.497238" stop-color="#3BA0FF"/>
            <stop offset="1" stop-color="#5FB2FF"/>
        </linearGradient>
    </defs>
    <path d="M12 23.375C9.75024 23.375 7.551 22.7079 5.68039 21.458C3.80978 20.2081 2.35182 18.4315 1.49088 16.353C0.629929 14.2745 0.404666 11.9874 0.843573 9.78085C1.28248 7.57432 2.36584 5.54749 3.95667 3.95667C5.54749 2.36584 7.57432 1.28248 9.78085 0.843573C11.9874 0.404666 14.2745 0.629929 16.353 1.49088C18.4315 2.35182 20.2081 3.80978 21.458 5.68039C22.7079 7.551 23.375 9.75024 23.375 12C23.375 15.0168 22.1766 17.9101 20.0433 20.0433C17.9101 22.1766 15.0168 23.375 12 23.375V23.375ZM12 2.37501C10.0964 2.37501 8.23546 2.9395 6.65264 3.99711C5.06982 5.05472 3.83616 6.55794 3.10766 8.31668C2.37917 10.0754 2.18856 12.0107 2.55995 13.8777C2.93133 15.7448 3.84802 17.4598 5.1941 18.8059C6.54018 20.152 8.25519 21.0687 10.1223 21.4401C11.9893 21.8114 13.9246 21.6208 15.6833 20.8923C17.4421 20.1639 18.9453 18.9302 20.0029 17.3474C21.0605 15.7645 21.625 13.9037 21.625 12C21.625 9.4473 20.6109 6.99914 18.8059 5.1941C17.0009 3.38906 14.5527 2.37501 12 2.37501Z" fill="url(#paint0_linear)"/>
    <path d="M12 12.875C11.1347 12.875 10.2888 12.6184 9.56938 12.1377C8.84992 11.657 8.28916 10.9737 7.95803 10.1742C7.6269 9.37482 7.54026 8.49515 7.70907 7.64648C7.87788 6.79782 8.29456 6.01826 8.90641 5.40641C9.51827 4.79456 10.2978 4.37788 11.1465 4.20907C11.9951 4.04026 12.8748 4.1269 13.6742 4.45803C14.4737 4.78916 15.157 5.34992 15.6377 6.06938C16.1184 6.78885 16.375 7.63471 16.375 8.5C16.375 9.66032 15.9141 10.7731 15.0936 11.5936C14.2731 12.4141 13.1603 12.875 12 12.875ZM12 5.875C11.4808 5.875 10.9733 6.02896 10.5416 6.31739C10.11 6.60583 9.7735 7.0158 9.57482 7.49546C9.37614 7.97511 9.32415 8.50291 9.42544 9.01211C9.52673 9.52131 9.77673 9.98904 10.1438 10.3562C10.511 10.7233 10.9787 10.9733 11.4879 11.0746C11.9971 11.1758 12.5249 11.1239 13.0045 10.9252C13.4842 10.7265 13.8942 10.3901 14.1826 9.95837C14.4711 9.5267 14.625 9.01918 14.625 8.5C14.625 7.80381 14.3484 7.13613 13.8562 6.64385C13.3639 6.15156 12.6962 5.875 12 5.875Z" fill="url(#paint1_linear)"/>
    <path d="M20.3563 19C20.2348 19.0008 20.1145 18.9764 20.0031 18.9282C19.8916 18.88 19.7914 18.8091 19.7088 18.72C18.78 17.707 17.6511 16.8977 16.3935 16.3435C15.1359 15.7892 13.7769 15.502 12.4025 15.5H11.5975C9.0357 15.4945 6.57228 16.4861 4.72877 18.265C4.55844 18.4056 4.34127 18.4765 4.12081 18.4636C3.90036 18.4507 3.69293 18.355 3.54014 18.1955C3.38734 18.0361 3.30048 17.8248 3.29698 17.604C3.29349 17.3832 3.37361 17.1692 3.52127 17.005C5.68767 14.9111 8.5846 13.7435 11.5975 13.75H12.4025C14.018 13.7537 15.6152 14.0914 17.0939 14.7419C18.5726 15.3924 19.9008 16.3416 20.995 17.53C21.1106 17.6547 21.1874 17.8103 21.216 17.9779C21.2446 18.1455 21.2237 18.3178 21.156 18.4737C21.0882 18.6297 20.9765 18.7625 20.8345 18.856C20.6925 18.9494 20.5263 18.9995 20.3563 19V19Z" fill="url(#paint2_linear)"/>
</svg>
