<svg width="25" height="25" viewBox="0 0 25 25" fill="none"
    xmlns="http://www.w3.org/2000/svg">
    <path d="M1.82657 2.57471C1.56924 2.57473 1.32245 2.67931 1.14049 2.86545C0.958525 3.05159 0.856288 3.30403 0.856262 3.56727V11.5077C0.856288 11.771 0.958525 12.0234 1.14049 12.2096C1.32245 12.3957 1.56924 12.5003 1.82657 12.5003H9.58907C9.84641 12.5003 10.0932 12.3957 10.2752 12.2096C10.4571 12.0234 10.5594 11.771 10.5594 11.5077V3.56727C10.5594 3.30403 10.4571 3.05159 10.2752 2.86545C10.0932 2.67931 9.84641 2.57473 9.58907 2.57471H1.82657ZM2.79689 4.55983H8.61876V10.5152H2.79689V4.55983Z" fill="#FDFDFD"/>
    <path d="M3.76719 14.4854C3.50985 14.4854 3.26306 14.59 3.0811 14.7761C2.89914 14.9622 2.7969 15.2147 2.79688 15.4779V21.4333C2.7969 21.6965 2.89914 21.949 3.0811 22.1351C3.26306 22.3212 3.50985 22.4258 3.76719 22.4258H9.58906C9.8464 22.4258 10.0932 22.3212 10.2751 22.1351C10.4571 21.949 10.5593 21.6965 10.5594 21.4333V15.4779C10.5593 15.2147 10.4571 14.9622 10.2751 14.7761C10.0932 14.59 9.8464 14.4854 9.58906 14.4854H3.76719ZM4.7375 16.4705H8.61875V20.4407H4.7375V16.4705Z" fill="#FDFDFD"/>
    <path d="M13.4703 14.4854C13.213 14.4854 12.9662 14.59 12.7842 14.7761C12.6023 14.9622 12.5 15.2147 12.5 15.4779V23.4184C12.5 23.6816 12.6023 23.9341 12.7842 24.1202C12.9662 24.3063 13.213 24.4109 13.4703 24.4109H21.2328C21.4901 24.4109 21.7369 24.3063 21.9189 24.1202C22.1009 23.9341 22.2031 23.6816 22.2031 23.4184V15.4779C22.2031 15.2147 22.1009 14.9622 21.9189 14.7761C21.7369 14.59 21.4901 14.4854 21.2328 14.4854H13.4703ZM14.4406 16.4705H20.2625V22.4258H14.4406V16.4705Z" fill="#FDFDFD"/>
    <path d="M13.4703 0.589355C13.213 0.589382 12.9662 0.693963 12.7842 0.880098C12.6023 1.06623 12.5 1.31868 12.5 1.58191V11.5075C12.5 11.7707 12.6023 12.0232 12.7842 12.2093C12.9662 12.3955 13.213 12.5 13.4703 12.5001H23.1734C23.4308 12.5 23.6776 12.3955 23.8595 12.2093C24.0415 12.0232 24.1437 11.7707 24.1437 11.5075V1.58191C24.1437 1.31868 24.0415 1.06623 23.8595 0.880098C23.6776 0.693963 23.4308 0.589382 23.1734 0.589355H13.4703ZM14.4406 2.57447H22.2031V10.5149H14.4406V2.57447Z" fill="#FDFDFD"/>
</svg>
