<svg width="27" height="27" viewBox="0 0 27 25" fill="none"
    xmlns="http://www.w3.org/2000/svg">
    <defs>
        <linearGradient id="paint0_linear" x1="7.835" y1="21.0274" x2="-0.0978284" y2="20.848" gradientUnits="userSpaceOnUse">
            <stop stop-color="#3887FE"/>
            <stop offset="0.497238" stop-color="#3BA0FF"/>
            <stop offset="1" stop-color="#5FB2FF"/>
        </linearGradient>
        <linearGradient id="paint1_linear" x1="26.7249" y1="19.2767" x2="18.7845" y2="19.1558" gradientUnits="userSpaceOnUse">
            <stop stop-color="#3887FE"/>
            <stop offset="0.497238" stop-color="#3BA0FF"/>
            <stop offset="1" stop-color="#5FB2FF"/>
        </linearGradient>
        <linearGradient id="paint2_linear" x1="17.2773" y1="17.21" x2="9.34133" y2="17.1228" gradientUnits="userSpaceOnUse">
            <stop stop-color="#3887FE"/>
            <stop offset="0.497238" stop-color="#3BA0FF"/>
            <stop offset="1" stop-color="#5FB2FF"/>
        </linearGradient>
    </defs>
    <path d="M0.946982 12.8491C0.42394 12.8491 0 13.2731 0 13.7906V23.6844C0 24.2074 0.42394 24.6313 0.946982 24.6313H7.16843C7.69148 24.6313 8.10991 24.2074 8.10991 23.6844V13.7906C8.10991 13.2676 7.68597 12.8491 7.16843 12.8491H0.946982ZM6.22145 22.7429H1.88846V14.7376H6.22145V22.7429Z" fill="url(#paint0_linear)"/>
    <path d="M27 23.6907V8.07101C27 7.54796 26.5761 7.12402 26.053 7.12402H19.8316C19.3085 7.12402 18.8846 7.54796 18.8846 8.07101V23.6852C18.8846 24.2082 19.3085 24.6322 19.8316 24.6322H26.053C26.5761 24.6322 27 24.2082 27 23.6907ZM25.1115 22.7437H20.7785V9.01799H25.1115V22.7437Z" fill="url(#paint1_linear)"/>
    <path d="M16.6107 24.6318C17.1337 24.6318 17.5522 24.2079 17.5522 23.6848V1.31515C17.5522 0.792104 17.1282 0.368164 16.6107 0.368164H10.3892C9.8662 0.368164 9.44226 0.792104 9.44226 1.31515V23.6848C9.44226 24.2079 9.8662 24.6318 10.3892 24.6318H16.6107ZM11.3362 2.26213H15.6692V22.7434H11.3362V2.26213Z" fill="url(#paint2_linear)"/>
</svg>
