<svg width="26" height="26" viewBox="0 0 26 26" fill="none"
    xmlns="http://www.w3.org/2000/svg">
    <defs>
        <linearGradient id="paint0_linear" x1="24.3612" y1="17.7317" x2="0.531876" y2="16.9487" gradientUnits="userSpaceOnUse">
            <stop stop-color="#3887FE"/>
            <stop offset="0.497238" stop-color="#3BA0FF"/>
            <stop offset="1" stop-color="#5FB2FF"/>
        </linearGradient>
        <linearGradient id="paint1_linear" x1="18.3019" y1="15.2081" x2="7.1816" y2="14.8427" gradientUnits="userSpaceOnUse">
            <stop stop-color="#3887FE"/>
            <stop offset="0.497238" stop-color="#3BA0FF"/>
            <stop offset="1" stop-color="#5FB2FF"/>
        </linearGradient>
    </defs>
    <path d="M13.8124 25.1876H12.1874C11.5886 25.1919 11.0091 24.9756 10.5596 24.58C10.11 24.1844 9.82179 23.6371 9.74994 23.0426C9.20469 22.8702 8.67474 22.6528 8.16557 22.3926C7.69411 22.7654 7.10154 22.9508 6.50167 22.9133C5.9018 22.8758 5.33694 22.618 4.91557 22.1894L3.81057 21.0438C3.38197 20.6224 3.12417 20.0576 3.08668 19.4577C3.04919 18.8578 3.23465 18.2653 3.60744 17.7938C3.34923 17.2977 3.13185 16.7814 2.95744 16.2501C2.36291 16.1782 1.81563 15.89 1.42001 15.4405C1.02439 14.9909 0.808116 14.4114 0.812442 13.8126V12.1876C0.808116 11.5887 1.02439 11.0092 1.42001 10.5597C1.81563 10.1101 2.36291 9.82191 2.95744 9.75006C3.12976 9.20481 3.34718 8.67486 3.60744 8.16569C3.23465 7.69423 3.04919 7.10166 3.08668 6.50179C3.12417 5.90193 3.38197 5.33706 3.81057 4.91569L4.95619 3.81069C5.37756 3.3821 5.94243 3.1243 6.5423 3.0868C7.14216 3.04931 7.73473 3.23477 8.20619 3.60756C8.70228 3.34936 9.21857 3.13197 9.74994 2.95756C9.82179 2.36303 10.11 1.81576 10.5596 1.42014C11.0091 1.02451 11.5886 0.808238 12.1874 0.812564H13.8124C14.4113 0.808238 14.9908 1.02451 15.4403 1.42014C15.8899 1.81576 16.1781 2.36303 16.2499 2.95756C16.7952 3.12989 17.3251 3.3473 17.8343 3.60756C18.3058 3.23477 18.8983 3.04931 19.4982 3.0868C20.0981 3.1243 20.6629 3.3821 21.0843 3.81069L22.1893 4.95631C22.6179 5.37769 22.8757 5.94255 22.9132 6.54242C22.9507 7.14229 22.7652 7.73486 22.3924 8.20631C22.6527 8.71548 22.8701 9.24544 23.0424 9.79069C23.63 9.86169 24.1717 10.1441 24.5664 10.5851C24.9611 11.0261 25.1819 11.5957 25.1874 12.1876V13.8126C25.1918 14.4114 24.9755 14.9909 24.5799 15.4405C24.1842 15.89 23.637 16.1782 23.0424 16.2501C22.8701 16.7953 22.6527 17.3253 22.3924 17.8344C22.7652 18.3059 22.9507 18.8985 22.9132 19.4983C22.8757 20.0982 22.6179 20.6631 22.1893 21.0844L21.0437 22.1894C20.6223 22.618 20.0575 22.8758 19.4576 22.9133C18.8577 22.9508 18.2651 22.7654 17.7937 22.3926C17.2845 22.6528 16.7546 22.8702 16.2093 23.0426C16.1383 23.6302 15.856 24.1718 15.4149 24.5665C14.9739 24.9612 14.4043 25.182 13.8124 25.1876V25.1876ZM8.05182 20.5807C8.19798 20.5782 8.3418 20.6176 8.46619 20.6944C9.18458 21.117 9.95853 21.4369 10.7656 21.6451C10.9443 21.6911 11.1021 21.7967 11.2128 21.9444C11.3236 22.0921 11.3808 22.2731 11.3749 22.4576V22.7501C11.3749 22.9656 11.4605 23.1722 11.6129 23.3246C11.7653 23.477 11.972 23.5626 12.1874 23.5626H13.8124C14.0279 23.5626 14.2346 23.477 14.387 23.3246C14.5393 23.1722 14.6249 22.9656 14.6249 22.7501V22.4332C14.6191 22.2487 14.6763 22.0677 14.787 21.92C14.8978 21.7723 15.0556 21.6667 15.2343 21.6207C16.0413 21.4126 16.8153 21.0926 17.5337 20.6701C17.6881 20.5791 17.8682 20.5418 18.046 20.5638C18.2238 20.5859 18.3893 20.6661 18.5168 20.7919L18.7443 21.0194C18.8198 21.0956 18.9097 21.156 19.0087 21.1973C19.1077 21.2385 19.2139 21.2598 19.3212 21.2598C19.4285 21.2598 19.5347 21.2385 19.6337 21.1973C19.7327 21.156 19.8225 21.0956 19.8981 21.0194L21.0437 19.8738C21.1198 19.7983 21.1803 19.7084 21.2215 19.6094C21.2628 19.5104 21.284 19.4042 21.284 19.2969C21.284 19.1897 21.2628 19.0835 21.2215 18.9845C21.1803 18.8855 21.1198 18.7956 21.0437 18.7201L20.8162 18.4926C20.6903 18.3651 20.6101 18.1995 20.5881 18.0217C20.566 17.8439 20.6034 17.6638 20.6943 17.5094C21.1169 16.7911 21.4368 16.0171 21.6449 15.2101C21.691 15.0313 21.7966 14.8735 21.9442 14.7628C22.0919 14.652 22.2729 14.5948 22.4574 14.6007H22.7499C22.9654 14.6007 23.1721 14.5151 23.3245 14.3627C23.4768 14.2103 23.5624 14.0037 23.5624 13.7882V12.1876C23.5624 11.9721 23.4768 11.7654 23.3245 11.613C23.1721 11.4607 22.9654 11.3751 22.7499 11.3751H22.4331C22.2486 11.3809 22.0676 11.3237 21.9199 11.213C21.7722 11.1022 21.6666 10.9445 21.6206 10.7657C21.4125 9.95866 21.0925 9.1847 20.6699 8.46631C20.579 8.31193 20.5417 8.13183 20.5637 7.95403C20.5858 7.77623 20.666 7.61069 20.7918 7.48319L21.0193 7.25569C21.0955 7.18016 21.1559 7.09029 21.1972 6.99128C21.2384 6.89227 21.2597 6.78607 21.2597 6.67881C21.2597 6.57155 21.2384 6.46536 21.1972 6.36635C21.1559 6.26733 21.0955 6.17747 21.0193 6.10194L19.8981 4.95631C19.8225 4.88016 19.7327 4.81971 19.6337 4.77846C19.5347 4.73721 19.4285 4.71598 19.3212 4.71598C19.2139 4.71598 19.1077 4.73721 19.0087 4.77846C18.9097 4.81971 18.8198 4.88016 18.7443 4.95631L18.5168 5.18381C18.3893 5.30968 18.2238 5.38987 18.046 5.41191C17.8682 5.43396 17.6881 5.39661 17.5337 5.30569C16.8153 4.88315 16.0413 4.56318 15.2343 4.35506C15.0556 4.309 14.8978 4.20344 14.787 4.05576C14.6763 3.90808 14.6191 3.72708 14.6249 3.54256V3.25006C14.6249 3.03458 14.5393 2.82791 14.387 2.67554C14.2346 2.52317 14.0279 2.43756 13.8124 2.43756H12.1874C11.972 2.43756 11.7653 2.52317 11.6129 2.67554C11.4605 2.82791 11.3749 3.03458 11.3749 3.25006V3.56694C11.3808 3.75145 11.3236 3.93245 11.2128 4.08013C11.1021 4.22782 10.9443 4.33338 10.7656 4.37944C9.95853 4.58755 9.18458 4.90753 8.46619 5.33006C8.31181 5.42099 8.13171 5.45833 7.95391 5.43629C7.7761 5.41425 7.61057 5.33405 7.48307 5.20819L7.25557 4.95631C7.18003 4.88016 7.09017 4.81971 6.99116 4.77846C6.89215 4.73721 6.78595 4.71598 6.67869 4.71598C6.57143 4.71598 6.46523 4.73721 6.36622 4.77846C6.26721 4.81971 6.17735 4.88016 6.10182 4.95631L4.95619 6.10194C4.88004 6.17747 4.81959 6.26733 4.77834 6.36635C4.73709 6.46536 4.71586 6.57155 4.71586 6.67881C4.71586 6.78607 4.73709 6.89227 4.77834 6.99128C4.81959 7.09029 4.88004 7.18016 4.95619 7.25569L5.18369 7.48319C5.30956 7.61069 5.38975 7.77623 5.41179 7.95403C5.43383 8.13183 5.39649 8.31193 5.30557 8.46631C4.88303 9.1847 4.56306 9.95866 4.35494 10.7657C4.30888 10.9445 4.20332 11.1022 4.05564 11.213C3.90795 11.3237 3.72695 11.3809 3.54244 11.3751H3.24994C3.03445 11.3751 2.82779 11.4607 2.67542 11.613C2.52304 11.7654 2.43744 11.9721 2.43744 12.1876V13.8126C2.43744 14.0281 2.52304 14.2347 2.67542 14.3871C2.82779 14.5395 3.03445 14.6251 3.24994 14.6251H3.56682C3.75133 14.6192 3.93233 14.6764 4.08001 14.7872C4.2277 14.8979 4.33326 15.0557 4.37932 15.2344C4.58743 16.0415 4.90741 16.8154 5.32994 17.5338C5.42086 17.6882 5.45821 17.8683 5.43617 18.0461C5.41413 18.2239 5.33393 18.3894 5.20807 18.5169L4.98057 18.7444C4.90441 18.82 4.84397 18.9098 4.80272 19.0088C4.76147 19.1079 4.74023 19.2141 4.74023 19.3213C4.74023 19.4286 4.76147 19.5348 4.80272 19.6338C4.84397 19.7328 4.90441 19.8227 4.98057 19.8982L6.10182 21.0438C6.17735 21.12 6.26721 21.1804 6.36622 21.2217C6.46523 21.2629 6.57143 21.2842 6.67869 21.2842C6.78595 21.2842 6.89215 21.2629 6.99116 21.2217C7.09017 21.1804 7.18003 21.12 7.25557 21.0438L7.48307 20.8163C7.6344 20.6662 7.83867 20.5816 8.05182 20.5807Z" fill="url(#paint0_linear)"/>
    <path d="M13 18.6875C11.8751 18.6875 10.7755 18.3539 9.8402 17.729C8.90489 17.104 8.17591 16.2158 7.74544 15.1765C7.31496 14.1373 7.20233 12.9937 7.42179 11.8904C7.64124 10.7872 8.18292 9.77374 8.97833 8.97833C9.77374 8.18292 10.7872 7.64124 11.8904 7.42179C12.9937 7.20233 14.1373 7.31496 15.1765 7.74544C16.2158 8.17591 17.104 8.90489 17.729 9.8402C18.3539 10.7755 18.6875 11.8751 18.6875 13C18.6875 14.5084 18.0883 15.9551 17.0217 17.0217C15.9551 18.0883 14.5084 18.6875 13 18.6875V18.6875ZM13 8.9375C12.1965 8.9375 11.4111 9.17576 10.743 9.62216C10.0749 10.0686 9.55422 10.703 9.24674 11.4454C8.93926 12.1877 8.85881 13.0045 9.01556 13.7926C9.17231 14.5806 9.55923 15.3045 10.1274 15.8726C10.6955 16.4408 11.4194 16.8277 12.2074 16.9844C12.9955 17.1412 13.8123 17.0607 14.5547 16.7533C15.297 16.4458 15.9315 15.9251 16.3778 15.257C16.8242 14.5889 17.0625 13.8035 17.0625 13C17.0625 11.9226 16.6345 10.8892 15.8726 10.1274C15.1108 9.36551 14.0774 8.9375 13 8.9375Z" fill="url(#paint1_linear)"/>

</svg>
