<svg width="24" height="24" viewBox="0 0 24 24" fill="none"
    xmlns="http://www.w3.org/2000/svg">
    <defs>
        <linearGradient id="paint0_linear" x1="22.6038" y1="18.0221" x2="0.379737" y2="17.0728" gradientUnits="userSpaceOnUse">
            <stop stop-color="#3887FE"/>
            <stop offset="0.497238" stop-color="#3BA0FF"/>
            <stop offset="1" stop-color="#5FB2FF"/>
        </linearGradient>
        <linearGradient id="paint1_linear" x1="20.9145" y1="5.48148" x2="0.558409" y2="3.47702" gradientUnits="userSpaceOnUse">
            <stop stop-color="#3887FE"/>
            <stop offset="0.497238" stop-color="#3BA0FF"/>
            <stop offset="1" stop-color="#5FB2FF"/>
        </linearGradient>
        <linearGradient id="paint2_linear" x1="23.0191" y1="15.9838" x2="12.768" y2="15.4786" gradientUnits="userSpaceOnUse">
            <stop stop-color="#3887FE"/>
            <stop offset="0.497238" stop-color="#3BA0FF"/>
            <stop offset="1" stop-color="#5FB2FF"/>
        </linearGradient>
    </defs>
    <path d="M19 23.375H5C3.83968 23.375 2.72688 22.9141 1.90641 22.0936C1.08594 21.2731 0.625 20.1603 0.625 19V6.75C0.625 6.51794 0.717187 6.29538 0.881282 6.13128C1.04538 5.96719 1.26794 5.875 1.5 5.875H19C20.1603 5.875 21.2731 6.33594 22.0936 7.15641C22.9141 7.97688 23.375 9.08968 23.375 10.25V19C23.375 20.1603 22.9141 21.2731 22.0936 22.0936C21.2731 22.9141 20.1603 23.375 19 23.375V23.375ZM2.375 7.625V19C2.375 19.6962 2.65156 20.3639 3.14384 20.8562C3.63613 21.3484 4.30381 21.625 5 21.625H19C19.6962 21.625 20.3639 21.3484 20.8562 20.8562C21.3484 20.3639 21.625 19.6962 21.625 19V10.25C21.625 9.55381 21.3484 8.88613 20.8562 8.39384C20.3639 7.90156 19.6962 7.625 19 7.625H2.375Z" fill="url(#paint0_linear)"/>
    <path d="M20.75 7.62506C20.5179 7.62506 20.2953 7.53287 20.1313 7.36878C19.9672 7.20469 19.875 6.98213 19.875 6.75006V4.34381C19.8917 4.03729 19.8391 3.73094 19.7209 3.44762C19.6027 3.1643 19.4221 2.91132 19.1925 2.70756C18.9862 2.553 18.7473 2.44745 18.4942 2.39894C18.241 2.35042 17.9801 2.36021 17.7312 2.42756L3.05747 5.76131C2.86009 5.80576 2.68421 5.91725 2.55977 6.07678C2.43534 6.23632 2.37003 6.43405 2.37497 6.63631C2.37497 6.86838 2.28279 7.09094 2.11869 7.25503C1.9546 7.41912 1.73204 7.51131 1.49997 7.51131C1.26791 7.51131 1.04535 7.41912 0.881256 7.25503C0.717162 7.09094 0.624975 6.86838 0.624975 6.63631C0.619841 6.03815 0.819156 5.45618 1.18992 4.98676C1.56068 4.51734 2.08065 4.18863 2.66372 4.05506L17.3462 0.721312C17.8512 0.593628 18.3787 0.58323 18.8883 0.690915C19.3979 0.798599 19.8761 1.02151 20.2862 1.34256C20.7199 1.71062 21.0653 2.1714 21.2971 2.69087C21.5288 3.21034 21.6408 3.77523 21.625 4.34381V6.75006C21.625 6.98213 21.5328 7.20469 21.3687 7.36878C21.2046 7.53287 20.982 7.62506 20.75 7.62506Z" fill="url(#paint1_linear)"/>
    <path d="M22.5 18.125H16.375C15.4467 18.125 14.5565 17.7563 13.9001 17.0999C13.2437 16.4435 12.875 15.5533 12.875 14.625C12.875 13.6967 13.2437 12.8065 13.9001 12.1501C14.5565 11.4937 15.4467 11.125 16.375 11.125H22.5C22.7321 11.125 22.9546 11.2172 23.1187 11.3813C23.2828 11.5454 23.375 11.7679 23.375 12V17.25C23.375 17.4821 23.2828 17.7046 23.1187 17.8687C22.9546 18.0328 22.7321 18.125 22.5 18.125ZM16.375 12.875C15.9109 12.875 15.4658 13.0594 15.1376 13.3876C14.8094 13.7158 14.625 14.1609 14.625 14.625C14.625 15.0891 14.8094 15.5342 15.1376 15.8624C15.4658 16.1906 15.9109 16.375 16.375 16.375H21.625V12.875H16.375Z" fill="url(#paint2_linear)"/>

</svg>
