<svg width="21" height="21" viewBox="0 0 21 21" fill="none" xmlns="http://www.w3.org/2000/svg">
<g clip-path="url(#clip0)">
<path fill-rule="evenodd" clip-rule="evenodd" d="M4.47506 5.54153L4.47506 1.29463C4.47506 0.914793 4.16392 0.60365 3.78004 0.599609C3.40021 0.599609 3.08906 0.910752 3.08906 1.29463L3.08906 5.54153C1.80812 5.85671 0.854492 7.00834 0.854492 8.38626C0.854492 9.76418 1.80812 10.9199 3.08906 11.231L3.08906 19.7046C3.08906 20.0885 3.39617 20.3996 3.78004 20.3996C4.16392 20.3996 4.47506 20.0885 4.47506 19.7046L4.47506 11.231C5.756 10.9158 6.70964 9.76418 6.70964 8.38626C6.70964 7.00834 5.756 5.85267 4.47506 5.54153Z" fill="#152C5B"/>
<path fill-rule="evenodd" clip-rule="evenodd" d="M11.1909 10.144L11.1909 1.29463C11.1909 0.914793 10.8838 0.60365 10.4959 0.599609C10.116 0.599609 9.80488 0.910752 9.80488 1.29463L9.80488 10.144C8.52395 10.4592 7.57031 11.6108 7.57031 12.9888C7.57031 14.3667 8.52395 15.5223 9.80488 15.8335V19.7046C9.80488 20.0885 10.112 20.3996 10.4959 20.3996C10.8797 20.3996 11.1909 20.0885 11.1909 19.7046V15.8335C12.4718 15.5183 13.4255 14.3667 13.4255 12.9888C13.4255 11.6108 12.4718 10.4552 11.1909 10.144Z" fill="#152C5B"/>
<path fill-rule="evenodd" clip-rule="evenodd" d="M17.9106 5.54153V1.29463C17.9106 0.914793 17.5995 0.60365 17.2196 0.599609C16.8358 0.599609 16.5246 0.910752 16.5246 1.29463V5.54153C15.2437 5.85671 14.29 7.00834 14.29 8.38626C14.29 9.76418 15.2437 10.9199 16.5246 11.231V19.7046C16.5246 20.0885 16.8358 20.3996 17.2196 20.3996C17.5995 20.3996 17.9106 20.0885 17.9106 19.7046V11.231C19.1915 10.9158 20.1452 9.76418 20.1452 8.38626C20.1452 7.00834 19.1915 5.85267 17.9106 5.54153Z" fill="#152C5B"/>
</g>
<defs>
<clipPath id="clip0">
<rect width="19.8" height="19.8" fill="white" transform="matrix(0 1 1 0 0.599609 0.599609)"/>
</clipPath>
</defs>
</svg>
