<svg xmlns="http://www.w3.org/2000/svg"
    xmlns:xlink="http://www.w3.org/1999/xlink" viewBox="0 0 44.01 43.63">
    <defs>
        <linearGradient id="linear-gradient" x1="37.66" y1="31.17" x2="37.66" y2="43.63" gradientUnits="userSpaceOnUse">
            <stop offset="0" stop-color="#43c7f1"/>
            <stop offset="1" stop-color="#4878bb"/>
        </linearGradient>
        <linearGradient id="linear-gradient-2" x1="6.24" y1="31.01" x2="6.24" y2="43.48" xlink:href="#linear-gradient"/>
        <linearGradient id="linear-gradient-3" x1="6.23" y1="0" x2="6.23" y2="12.46" xlink:href="#linear-gradient"/>
        <linearGradient id="linear-gradient-4" x1="37.78" y1="0.09" x2="37.78" y2="12.58" xlink:href="#linear-gradient"/>
        <linearGradient id="linear-gradient-5" x1="22.01" y1="30.47" x2="22.01" y2="35.63" xlink:href="#linear-gradient"/>
        <linearGradient id="linear-gradient-6" x1="21.38" y1="13.61" x2="21.38" y2="27.5" xlink:href="#linear-gradient"/>
        <linearGradient id="linear-gradient-7" x1="12.48" y1="13.96" x2="12.48" y2="20.56" xlink:href="#linear-gradient"/>
        <linearGradient id="linear-gradient-8" x1="31.54" y1="13.96" x2="31.54" y2="20.56" xlink:href="#linear-gradient"/>
    </defs>
    <g id="Layer_2" data-name="Layer 2">
        <g id="Layer_1-2" data-name="Layer 1">
            <path d="M43.88,35.69a23.76,23.76,0,0,1-.1,3.42,5.45,5.45,0,0,1-5.37,4.5c-1.92,0-3.84,0-5.77,0a1.08,1.08,0,1,1,0-2.15H38.2a3.57,3.57,0,0,0,3.54-3.56V32.29a1.06,1.06,0,0,1,.77-1.08,1.09,1.09,0,0,1,1.23.5,1.39,1.39,0,0,1,.14.72Z" style="fill:url(#linear-gradient)"/>
            <path d="M0,35.29v-3C0,31.48.39,31,1.08,31s1.07.47,1.08,1.31c0,1.82,0,3.63,0,5.45A3.53,3.53,0,0,0,5.68,41.3h5.59a1.08,1.08,0,0,1,1.14,1.39,1,1,0,0,1-1,.75c-2.19,0-4.37.12-6.55,0a5.23,5.23,0,0,1-4.82-4.9c-.06-1.07,0-2.14,0-3.2Z" style="fill:url(#linear-gradient-2)"/>
            <path d="M0,7.93A24.45,24.45,0,0,1,.12,4.47,5.45,5.45,0,0,1,5.35,0c2,0,4,0,6,0a1.08,1.08,0,0,1,1.16,1.06,1.07,1.07,0,0,1-1.17,1.08c-1.82,0-3.63,0-5.45,0A3.39,3.39,0,0,0,2.16,5.86c0,1.78,0,3.57,0,5.35,0,.76-.4,1.24-1,1.25S0,12,0,11.24C0,10.21,0,9.18,0,7.93Z" style="fill:url(#linear-gradient-3)"/>
            <path d="M44,8.29c0,1.09,0,2.18,0,3.27a1,1,0,0,1-1.08,1,1.05,1.05,0,0,1-1-1.07,4.79,4.79,0,0,0,0-.66,8.46,8.46,0,0,1-.15-3.64c.71-2.89-.8-4.92-3.39-4.93H32.77a1.1,1.1,0,0,1-1.08-.57A1,1,0,0,1,32.55.15,64.46,64.46,0,0,1,39.07.2,5.6,5.6,0,0,1,44,5.33c0,1,0,2,0,3Z" style="fill:url(#linear-gradient-4)"/>
            <path d="M22,35.63a11.22,11.22,0,0,1-7.89-3.23,1.08,1.08,0,0,1,0-1.69,1.07,1.07,0,0,1,1.49.15A8.9,8.9,0,0,0,20,33.25,9,9,0,0,0,28.25,31c.72-.64,1.31-.72,1.79-.19s.35,1.13-.32,1.75A11.26,11.26,0,0,1,22,35.63Z" style="fill:url(#linear-gradient-5)"/>
            <path d="M24.11,19.59c0,1.33.07,3-.06,4.58a3.29,3.29,0,0,1-3.51,3.32,8.61,8.61,0,0,1-.88,0,1.06,1.06,0,0,1-1-1.06,1.05,1.05,0,0,1,1-1.08c.35,0,.71,0,1.06,0,.74-.07,1-.29,1.13-1A6.87,6.87,0,0,0,22,22.86q0-4,0-8a1.15,1.15,0,0,1,.6-1.15,1.07,1.07,0,0,1,1.55,1C24.12,16.27,24.11,17.78,24.11,19.59Z" style="fill:url(#linear-gradient-6)"/>
            <path d="M11.18,17.26c0-.65,0-1.29,0-1.94a1.3,1.3,0,1,1,2.59,0q0,1.94,0,3.87a1.31,1.31,0,0,1-1.33,1.36,1.29,1.29,0,0,1-1.26-1.36C11.17,18.55,11.18,17.9,11.18,17.26Z" style="fill:url(#linear-gradient-7)"/>
            <path d="M32.84,17.25c0,.65,0,1.3,0,1.94a1.3,1.3,0,1,1-2.59,0q0-1.93,0-3.87A1.32,1.32,0,0,1,31.57,14a1.29,1.29,0,0,1,1.27,1.36C32.85,16,32.84,16.61,32.84,17.25Z" style="fill:url(#linear-gradient-8)"/>
        </g>
    </g>
</svg>