<svg width="55" height="53" viewBox="0 0 55 53" fill="none"
    xmlns="http://www.w3.org/2000/svg">
    <path d="M30.6874 43.25C31.6785 43.25 32.482 44.0535 32.482 45.0447V51.0268C32.482 52.018 31.6785 52.8214 30.6874 52.8214C29.6962 52.8214 28.8928 52.018 28.8928 51.0268V45.0447C28.8928 44.0535 29.6962 43.25 30.6874 43.25ZM27.0981 21.7143C29.9866 21.7143 32.3438 23.989 32.4762 26.8448L32.482 27.0982V37.8661C32.482 38.8572 31.6785 39.6607 30.6874 39.6607C29.6962 39.6607 28.8928 38.8572 28.8928 37.8661V27.0982C28.8928 26.1071 28.0893 25.3036 27.0981 25.3036C26.1653 25.3036 25.3986 26.0153 25.3117 26.9254L25.3035 27.0982V49.8304C25.3035 50.8215 24.5 51.625 23.5088 51.625C22.5177 51.625 21.7142 50.8215 21.7142 49.8304V27.0982C21.7142 24.1248 24.1246 21.7143 27.0981 21.7143ZM16.3303 33.6786C17.3214 33.6786 18.1249 34.4821 18.1249 35.4732V48.6339C18.1249 49.6251 17.3214 50.4286 16.3303 50.4286C15.3391 50.4286 14.5356 49.6251 14.5356 48.6339V35.4732C14.5356 34.4821 15.3391 33.6786 16.3303 33.6786ZM45.0445 34.875C46.0357 34.875 46.8392 35.6785 46.8392 36.6697V46.2411C46.8392 47.2322 46.0357 48.0357 45.0445 48.0357C44.0534 48.0357 43.2499 47.2322 43.2499 46.2411V36.6697C43.2499 35.6785 44.0534 34.875 45.0445 34.875ZM35.7903 18.0284C38.1508 20.291 39.5502 23.3808 39.6543 26.699L39.6606 27.0982V45.0447C39.6606 46.0358 38.8571 46.8393 37.866 46.8393C36.8748 46.8393 36.0713 46.0358 36.0713 45.0447L36.0715 27.1237C36.0714 27.1152 36.0713 27.1067 36.0713 27.0982C36.0713 24.6177 35.0623 22.3025 33.3065 20.6195C32.591 19.9336 32.567 18.7975 33.2529 18.082C33.9388 17.3665 35.0748 17.3425 35.7903 18.0284ZM18.66 11.1539C19.2093 11.9789 18.9857 13.093 18.1606 13.6423C13.6876 16.6198 10.9463 21.6249 10.9463 27.0982V43.8482C10.9463 44.8394 10.1428 45.6429 9.15168 45.6429C8.16053 45.6429 7.35704 44.8394 7.35704 43.8482V27.0384L7.35823 27.0372L7.36199 26.6533C7.50707 20.1403 10.8306 14.2098 16.1717 10.6544C16.9967 10.1052 18.1108 10.3288 18.66 11.1539ZM1.97311 36.0714C2.96426 36.0714 3.76775 36.8749 3.76775 37.8661V41.4554C3.76775 42.4465 2.96426 43.25 1.97311 43.25C0.981956 43.25 0.178467 42.4465 0.178467 41.4554V37.8661C0.178467 36.8749 0.981956 36.0714 1.97311 36.0714ZM44.4025 6.47651C50.3222 11.4488 53.8616 18.7161 54.0127 26.5735L54.0177 27.0982V37.8661C54.0177 38.8572 53.2143 39.6607 52.2231 39.6607C51.232 39.6607 50.4285 38.8572 50.4285 37.8661V27.0982C50.4285 20.112 47.3417 13.6328 42.094 9.2249C41.3351 8.58741 41.2366 7.45538 41.8741 6.69644C42.5116 5.93749 43.6436 5.83902 44.4025 6.47651ZM27.0981 0.178589C30.5722 0.178589 33.9577 0.837862 37.1161 2.10488C38.0359 2.47392 38.4825 3.5188 38.1135 4.43869C37.7444 5.35858 36.6996 5.80514 35.7797 5.43611C33.0445 4.33885 30.1124 3.76787 27.0981 3.76787C14.3502 3.76787 3.99027 13.9922 3.77129 26.6878L3.76775 27.0982V30.6875C3.76775 31.6787 2.96426 32.4822 1.97311 32.4822C0.981956 32.4822 0.178467 31.6787 0.178467 30.6875V27.0982C0.178467 12.2309 12.2308 0.178589 27.0981 0.178589ZM27.0981 7.35716C37.8725 7.35716 46.6309 15.9888 46.8355 26.7143L46.8392 27.0982V29.4911C46.8392 30.4822 46.0357 31.2857 45.0445 31.2857C44.0534 31.2857 43.2499 30.4822 43.2499 29.4911V27.0982C43.2499 18.1778 36.0185 10.9464 27.0981 10.9464C26.189 10.9464 25.2901 11.0214 24.4074 11.1693C23.4299 11.333 22.5047 10.6734 22.3409 9.69583C22.1772 8.71831 22.8368 7.79309 23.8144 7.62932C24.8928 7.44863 25.9901 7.35716 27.0981 7.35716ZM27.0981 14.5357C28.0893 14.5357 28.8928 15.3392 28.8928 16.3304C28.8928 17.3215 28.0893 18.125 27.0981 18.125C22.2395 18.125 18.2828 21.9865 18.1295 26.8078L18.1249 27.0982V28.2947C18.1249 29.2858 17.3214 30.0893 16.3303 30.0893C15.3391 30.0893 14.5356 29.2858 14.5356 28.2947V27.0982C14.5356 20.1602 20.16 14.5357 27.0981 14.5357Z" fill="white"/>
</svg>
