<svg width="48" height="48" viewBox="0 0 48 48" fill="none"
    xmlns="http://www.w3.org/2000/svg">
    <defs>
        <clipPath id="clip0">
        </clipPath>
    </defs>
    <g clip-path="url(#clip0)">
        <path d="M48 24C48 10.7452 37.2548 0 24 0C10.7452 0 0 10.7452 0 24C0 37.2548 10.7452 48 24 48C37.2548 48 48 37.2548 48 24Z" fill="#FFBAF8"/>
        <path d="M13.5 31.5C15.5711 31.5 17.25 29.8211 17.25 27.75C17.25 25.6789 15.5711 24 13.5 24C11.4289 24 9.75 25.6789 9.75 27.75C9.75 29.8211 11.4289 31.5 13.5 31.5Z" fill="#EAC0B3"/>
        <path d="M13.5 30.75H26.25V49.4025C26.25 49.4025 23.5177 51 19.875 51C16.2323 51 13.5 48.3923 13.5 48.3923V30.75Z" fill="#EAC0B3"/>
        <path d="M26.25 40.401C26.25 44.6415 25.5885 44.2395 21.2872 44.2395C16.986 44.2395 15.0015 40.8022 15.0015 36.5617C15.0015 32.3212 14.838 28.5 18.309 28.5C28.125 28.875 26.25 36.1605 26.25 40.401Z" fill="#C99688"/>
        <path d="M34.4146 27.075C34.4146 33.7665 37.1791 41.9948 25.1251 41.9948C13.0711 41.9948 13.0711 33.7665 13.0711 27.075C11.2501 19.125 11.6251 9.75 24.0001 9.75C36.3751 9.75 34.4146 20.3827 34.4146 27.075V27.075Z" fill="#F5D0C5"/>
        <path d="M28.5 30.75H27.75C27.3358 30.75 27 31.0858 27 31.5C27 31.9142 27.3358 32.25 27.75 32.25H28.5C28.9142 32.25 29.25 31.9142 29.25 31.5C29.25 31.0858 28.9142 30.75 28.5 30.75Z" fill="#EAC0B3"/>
        <path d="M28.5 45H12C8.27208 45 5.25 48.0221 5.25 51.75V55.5C5.25 59.2279 8.27208 62.25 12 62.25H28.5C32.2279 62.25 35.25 59.2279 35.25 55.5V51.75C35.25 48.0221 32.2279 45 28.5 45Z" fill="#E05A33"/>
        <path fill-rule="evenodd" clip-rule="evenodd" d="M18.0001 18.75C18.0001 19.1475 17.9228 19.5277 17.7826 19.875C17.9668 20.3305 18.0364 20.8243 17.9851 21.313C17.9338 21.8017 17.7633 22.2703 17.4885 22.6776C17.2138 23.085 16.8431 23.4186 16.4092 23.6492C15.9753 23.8798 15.4914 24.0002 15.0001 24C15.0001 24.7956 14.684 25.5587 14.1214 26.1213C13.5588 26.6839 12.7957 27 12.0001 27C11.2044 27 10.4413 26.6839 9.87873 26.1213C9.31612 25.5587 9.00005 24.7956 9.00005 24C9.00005 23.2155 9.0488 21.9135 9.27605 20.7592C9.03269 20.2335 8.94676 19.6485 9.02866 19.075C9.11056 18.5014 9.35678 17.9639 9.73758 17.5272C10.1184 17.0906 10.6175 16.7736 11.1745 16.6144C11.7316 16.4553 12.3228 16.4609 12.8768 16.6305C13.2961 16.2104 13.8307 15.9241 14.4128 15.8079C14.9949 15.6917 15.5984 15.7508 16.1469 15.9777C16.6954 16.2047 17.1642 16.5892 17.4941 17.0827C17.824 17.5762 18.0001 18.1564 18.0001 18.75ZM34.3868 25.4197C34.8073 25.3198 35.2013 25.1302 35.5418 24.8639C35.8823 24.5976 36.1613 24.2609 36.3596 23.8768C36.5579 23.4927 36.671 23.0704 36.691 22.6386C36.711 22.2068 36.6375 21.7758 36.4756 21.375C36.6461 20.9534 36.7186 20.4986 36.6876 20.0449C36.6565 19.5912 36.5228 19.1504 36.2963 18.756C36.0699 18.3616 35.7568 18.0239 35.3806 17.7683C35.0045 17.5127 34.5751 17.346 34.1251 17.2807C34.5698 19.6357 34.4866 22.239 34.4116 24.6112L34.3868 25.4197Z" fill="#1B0B47"/>
        <path d="M21.6968 34.5C21.6968 34.3011 21.7758 34.1103 21.9164 33.9697C22.0571 33.829 22.2479 33.75 22.4468 33.75H29.304C29.5029 33.75 29.6937 33.829 29.8344 33.9697C29.975 34.1103 30.054 34.3011 30.054 34.5C30.054 35.4946 29.6589 36.4484 28.9557 37.1517C28.2524 37.8549 27.2986 38.25 26.304 38.25H25.4468C24.4522 38.25 23.4984 37.8549 22.7951 37.1517C22.0919 36.4484 21.6968 35.4946 21.6968 34.5V34.5Z" fill="#66253C"/>
        <path fill-rule="evenodd" clip-rule="evenodd" d="M27.5662 38.0325C27.1611 38.177 26.7341 38.2506 26.304 38.25H25.4467C24.4781 38.25 23.5471 37.8753 22.8486 37.2042C22.1502 36.5331 21.7385 35.6179 21.6997 34.65C22.2727 34.4355 23.1232 34.4603 23.9625 34.485C24.2295 34.4925 24.495 34.5 24.75 34.5C26.4075 34.5 27.75 35.6753 27.75 37.125C27.75 37.4438 27.6847 37.7498 27.5662 38.0325V38.0325Z" fill="#B03E67"/>
        <path d="M22.5 33.75H30V34.5C30 34.6989 29.921 34.8897 29.7803 35.0303C29.6397 35.171 29.4489 35.25 29.25 35.25H23.25C23.0511 35.25 22.8603 35.171 22.7197 35.0303C22.579 34.8897 22.5 34.6989 22.5 34.5V33.75Z" fill="white"/>
        <path d="M24 33.975C24 33.9153 24.0237 33.8581 24.0659 33.8159C24.1081 33.7737 24.1653 33.75 24.225 33.75H25.275C25.3347 33.75 25.3919 33.7737 25.4341 33.8159C25.4763 33.8581 25.5 33.9153 25.5 33.975V35.775C25.5 35.8347 25.4763 35.8919 25.4341 35.9341C25.3919 35.9763 25.3347 36 25.275 36H24.225C24.1653 36 24.1081 35.9763 24.0659 35.9341C24.0237 35.8919 24 35.8347 24 35.775V33.975V33.975Z" fill="#B03E67"/>
        <path d="M24.75 28.125C24.75 27.5037 24.2463 27 23.625 27C23.0037 27 22.5 27.5037 22.5 28.125V28.875C22.5 29.4963 23.0037 30 23.625 30C24.2463 30 24.75 29.4963 24.75 28.875V28.125Z" fill="#1B0B47"/>
        <path d="M32.25 28.125C32.25 27.5037 31.7463 27 31.125 27C30.5037 27 30 27.5037 30 28.125V28.875C30 29.4963 30.5037 30 31.125 30C31.7463 30 32.25 29.4963 32.25 28.875V28.125Z" fill="#1B0B47"/>
        <path fill-rule="evenodd" clip-rule="evenodd" d="M28.125 32.25C23.25 33.375 19.875 33.75 19.875 33.75C19.875 33.75 20.625 35.625 22.5 35.25C24 34.95 27 34.2503 28.125 33.75V32.25ZM28.5 32.25C33 33 36 33.567 36 33.567C36 33.567 35.1608 35.2043 33.375 34.875L33.135 34.8308C31.692 34.566 29.5125 34.1648 28.5 33.75V32.25Z" fill="#1B0B47"/>
    </g>
    <rect x="0.5" y="0.5" width="47" height="47" rx="23.5" stroke="black"/>
</svg>
