<svg width="48" height="48" viewBox="0 0 48 48" fill="none"
    xmlns="http://www.w3.org/2000/svg">
    <defs>
        <clipPath id="clip0">
            <rect width="48" height="48" rx="24" fill="white"/>
        </clipPath>
    </defs>
    <g clip-path="url(#clip0)">
        <path d="M48 24C48 10.7452 37.2548 0 24 0C10.7452 0 0 10.7452 0 24C0 37.2548 10.7452 48 24 48C37.2548 48 48 37.2548 48 24Z" fill="#E4ECF7"/>
        <path d="M13.5 31.5C15.5711 31.5 17.25 29.8211 17.25 27.75C17.25 25.6789 15.5711 24 13.5 24C11.4289 24 9.75 25.6789 9.75 27.75C9.75 29.8211 11.4289 31.5 13.5 31.5Z" fill="#836055"/>
        <path d="M13.5 30.75H26.25V49.4025C26.25 49.4025 23.5178 51 19.875 51C16.2323 51 13.5 48.3923 13.5 48.3923V30.75Z" fill="#836055"/>
        <path d="M26.25 40.4011C26.25 44.6416 23.625 45.0001 21.2873 44.2396C18.9502 43.4806 14.25 36.8656 14.25 32.6251C14.25 28.3846 14.838 28.5001 18.3098 28.5001C28.125 28.8751 26.25 36.1606 26.25 40.4011Z" fill="#553329"/>
        <path d="M34.4146 27.075C34.4146 33.7665 31.4986 41.25 26.6236 42.375C19.4986 41.625 13.0711 33.7665 13.0711 27.075C11.2501 19.125 11.6251 9.75 24.0001 9.75C36.3751 9.75 34.4146 20.3827 34.4146 27.075V27.075Z" fill="#836055"/>
        <path d="M28.5 30.75H27.75C27.3358 30.75 27 31.0858 27 31.5C27 31.9142 27.3358 32.25 27.75 32.25H28.5C28.9142 32.25 29.25 31.9142 29.25 31.5C29.25 31.0858 28.9142 30.75 28.5 30.75Z" fill="#68463C"/>
        <path d="M28.5 45H12C8.27208 45 5.25 48.0221 5.25 51.75V55.5C5.25 59.2279 8.27208 62.25 12 62.25H28.5C32.2279 62.25 35.25 59.2279 35.25 55.5V51.75C35.25 48.0221 32.2279 45 28.5 45Z" fill="#E05A33"/>
        <path d="M-0.000878155 7.49848C5.99687 1.50148 9.74987 9.74923 9.74987 9.74923L8.24837 15.7492C8.24837 15.7492 6.74837 17.6242 8.24837 23.2492C9.74837 28.8742 6.37337 31.8742 6.37337 31.8742C6.37337 31.8742 3.74837 33.75 1.49837 32.25C-0.751628 30.75 -1.04938 29.3085 -0.751628 26.625C-0.376628 23.25 0.748372 24.3735 0.748372 20.9985C0.748372 17.6235 -5.99938 13.4955 -0.0016281 7.49848H-0.000878155Z" fill="#1B0B47"/>
        <path d="M9.77236 9.88574L13.9034 11.6722L11.2244 17.8672L7.09411 16.0822C7.09411 16.0822 6.37411 14.625 7.49911 12.3757C8.62186 10.1257 9.77311 9.88574 9.77311 9.88574H9.77236Z" fill="#FF6C98"/>
        <path fill-rule="evenodd" clip-rule="evenodd" d="M13.4998 30.75L12.5075 24.1327C11.6313 24.3723 10.8718 24.9218 10.3701 25.6792C9.86846 26.4365 9.65878 27.3502 9.78004 28.2505C9.9013 29.1508 10.3452 29.9765 11.0294 30.5742C11.7135 31.1718 12.5914 31.5008 13.4998 31.5V37.725C12.3109 36.6703 11.2797 35.4503 10.4375 34.1025C9.16255 32.0745 8.27155 29.7495 7.82605 27.2827C7.3808 24.8092 7.39097 22.2751 7.85605 19.8052C8.32105 17.343 9.2308 15.0277 10.523 13.014C11.8145 11.001 13.4593 9.33673 15.3456 8.13448C17.2311 6.93148 19.3146 6.21823 21.4558 6.04273C21.9218 6.0046 22.3895 5.99208 22.8568 6.00523C24.8517 5.95247 26.8376 6.29004 28.7031 6.99898C30.4318 7.65898 32.0031 8.62573 33.3261 9.84448C34.6329 11.0404 35.6838 12.4888 36.4153 14.1022C36.9717 15.3358 37.3203 16.6528 37.4473 18H37.4998V21.2145C37.4998 21.2145 37.2531 21.3285 36.7513 21.489V27.855C36.7513 27.855 36.7513 28.908 35.6263 29.697C35.2363 29.9707 34.7128 30.1807 34.1938 30.339C34.3409 29.2569 34.4153 28.1662 34.4166 27.0742C34.4166 26.2987 34.4428 25.47 34.4698 24.6112C34.4968 23.7727 34.5246 22.905 34.5298 22.0305C33.1408 22.2847 31.2546 22.5 28.8463 22.5C22.9603 22.5 19.4998 21.2145 19.4998 21.2145V20.4652C18.9898 21.2632 18.4378 22.2277 17.9998 23.25C17.4373 24.5625 17.4373 25.908 17.4373 27.0382C17.4373 28.1692 17.4373 29.0857 16.8748 29.5395C15.7498 30.447 13.4998 30.75 13.4998 30.75Z" fill="#1B0B47"/>
        <path d="M24.75 28.125C24.75 27.5037 24.2463 27 23.625 27C23.0037 27 22.5 27.5037 22.5 28.125V28.875C22.5 29.4963 23.0037 30 23.625 30C24.2463 30 24.75 29.4963 24.75 28.875V28.125Z" fill="#1B0B47"/>
        <path d="M32.25 28.125C32.25 27.5037 31.7463 27 31.125 27C30.5037 27 30 27.5037 30 28.125V28.875C30 29.4963 30.5037 30 31.125 30C31.7463 30 32.25 29.4963 32.25 28.875V28.125Z" fill="#1B0B47"/>
        <path d="M20.625 29.25H19.125C18.5037 29.25 18 29.7537 18 30.375C18 30.9963 18.5037 31.5 19.125 31.5H20.625C21.2463 31.5 21.75 30.9963 21.75 30.375C21.75 29.7537 21.2463 29.25 20.625 29.25Z" fill="#FF859B"/>
        <path d="M34.125 29.25H33.375C32.7537 29.25 32.25 29.7537 32.25 30.375C32.25 30.9963 32.7537 31.5 33.375 31.5H34.125C34.7463 31.5 35.25 30.9963 35.25 30.375C35.25 29.7537 34.7463 29.25 34.125 29.25Z" fill="#FF859B"/>
    </g>

</svg>
