<svg width="48" height="48" viewBox="0 0 48 48" fill="none"
    xmlns="http://www.w3.org/2000/svg">
    <defs>
        <clipPath id="clip0">
            <rect width="48" height="48" rx="24" fill="white"/>
        </clipPath>
    </defs>
    <g clip-path="url(#clip0)">
        <path d="M48 24C48 10.7452 37.2548 0 24 0C10.7452 0 0 10.7452 0 24C0 37.2548 10.7452 48 24 48C37.2548 48 48 37.2548 48 24Z" fill="#70E0BF"/>
        <path d="M13.5 31.5C15.5711 31.5 17.25 29.8211 17.25 27.75C17.25 25.6789 15.5711 24 13.5 24C11.4289 24 9.75 25.6789 9.75 27.75C9.75 29.8211 11.4289 31.5 13.5 31.5Z" fill="#F0BD70"/>
        <path d="M13.5 30.75H26.25V49.4025C26.25 49.4025 23.5177 51 19.875 51C16.2323 51 13.5 48.3923 13.5 48.3923V30.75Z" fill="#F0BD70"/>
        <path d="M26.1082 39.834C26.1082 43.8727 25.4557 43.4902 21.2084 43.4902C16.9612 43.4902 15.0014 40.2165 15.0014 36.1777C15.0014 32.1397 14.8402 28.5 18.2677 28.5C27.9599 28.857 26.1082 35.7952 26.1082 39.834Z" fill="#E9B05B"/>
        <path d="M34.4146 27.075C34.4146 33.7665 33.3751 41.9948 25.1251 41.9948C16.8751 41.9948 13.0711 33.7665 13.0711 27.075C11.2501 19.125 11.6251 9.75 24.0001 9.75C36.3751 9.75 34.4146 20.3827 34.4146 27.075V27.075Z" fill="#FFCB7E"/>
        <path d="M28.5 30.75H27.75C27.3358 30.75 27 31.0858 27 31.5C27 31.9142 27.3358 32.25 27.75 32.25H28.5C28.9142 32.25 29.25 31.9142 29.25 31.5C29.25 31.0858 28.9142 30.75 28.5 30.75Z" fill="#F0BD70"/>
        <path d="M28.5 45H12C8.27208 45 5.25 48.0221 5.25 51.75V55.5C5.25 59.2279 8.27208 62.25 12 62.25H28.5C32.2279 62.25 35.25 59.2279 35.25 55.5V51.75C35.25 48.0221 32.2279 45 28.5 45Z" fill="#FF4DD8"/>
        <path d="M12.75 43.5H27V45.75C27 45.75 23.25 46.5 19.875 46.5C16.5 46.5 12.75 45.75 12.75 45.75V43.5Z" fill="#FF4DD8"/>
        <path d="M12.75 43.5H27V45C27 45 24.75 46.125 19.875 46.125C15 46.125 12.75 45 12.75 45V43.5Z" fill="#D2499B"/>
        <path d="M12.375 44.25C12.375 43.8522 12.533 43.4706 12.8143 43.1893C13.0956 42.908 13.4772 42.75 13.875 42.75H25.875C26.2728 42.75 26.6544 42.908 26.9357 43.1893C27.217 43.4706 27.375 43.8522 27.375 44.25C27.375 44.25 23.625 45 19.875 45C16.125 45 12.375 44.25 12.375 44.25Z" fill="#FF4DD8"/>
        <path d="M16.5 21C16.0283 23.25 17.25 26.2358 17.25 26.8073C17.25 27.3788 14.3018 29.076 13.5 29.625C12.6983 30.174 12.375 24.375 12.375 24.375C10.125 24.375 9.75002 28.5 9.75002 28.5C9.75002 28.5 8.06702 27.945 7.50002 25.125C7.11752 23.22 7.72427 19.0583 7.87502 18C8.25002 15.375 8.62502 9.37504 13.5 6.37504C18.375 3.37504 30.75 3.37504 33.75 4.12504C41.1705 5.97979 42.1635 16.1145 39.75 19.5C36 23.625 25.5 18.75 22.125 18.75C18.75 18.75 16.9725 18.75 16.5 21Z" fill="#AD3A20"/>
        <path d="M21.6968 34.5C21.6968 34.3011 21.7758 34.1103 21.9164 33.9697C22.0571 33.829 22.2479 33.75 22.4468 33.75H29.304C29.5029 33.75 29.6937 33.829 29.8344 33.9697C29.975 34.1103 30.054 34.3011 30.054 34.5C30.054 35.4946 29.6589 36.4484 28.9557 37.1517C28.2524 37.8549 27.2986 38.25 26.304 38.25H25.4468C24.4522 38.25 23.4984 37.8549 22.7951 37.1517C22.0919 36.4484 21.6968 35.4946 21.6968 34.5V34.5Z" fill="#66253C"/>
        <path fill-rule="evenodd" clip-rule="evenodd" d="M27.5662 38.0325C27.1611 38.177 26.7341 38.2506 26.304 38.25H25.4467C24.4781 38.25 23.5471 37.8753 22.8486 37.2042C22.1502 36.5331 21.7385 35.6179 21.6997 34.65C22.2727 34.4355 23.1232 34.4603 23.9625 34.485C24.2295 34.4925 24.495 34.5 24.75 34.5C26.4075 34.5 27.75 35.6753 27.75 37.125C27.75 37.4438 27.6847 37.7498 27.5662 38.0325V38.0325Z" fill="#B03E67"/>
        <path d="M22.5 33.75H30V34.5C30 34.6989 29.921 34.8897 29.7803 35.0303C29.6397 35.171 29.4489 35.25 29.25 35.25H23.25C23.0511 35.25 22.8603 35.171 22.7197 35.0303C22.579 34.8897 22.5 34.6989 22.5 34.5V33.75Z" fill="white"/>
        <path d="M24 33.975C24 33.9153 24.0237 33.8581 24.0659 33.8159C24.1081 33.7737 24.1653 33.75 24.225 33.75H25.275C25.3347 33.75 25.3919 33.7737 25.4341 33.8159C25.4763 33.8581 25.5 33.9153 25.5 33.975V35.775C25.5 35.8347 25.4763 35.8919 25.4341 35.9341C25.3919 35.9763 25.3347 36 25.275 36H24.225C24.1653 36 24.1081 35.9763 24.0659 35.9341C24.0237 35.8919 24 35.8347 24 35.775V33.975V33.975Z" fill="#B03E67"/>
        <path d="M32.25 28.125C32.25 28.4234 32.1315 28.7095 31.9205 28.9205C31.7095 29.1315 31.4234 29.25 31.125 29.25C30.8266 29.25 30.5405 29.1315 30.3295 28.9205C30.1185 28.7095 30 28.4234 30 28.125V27.2047C30 27.0922 30.0915 27 30.2047 27H32.0453C32.1578 27 32.25 27.0915 32.25 27.2047V28.125V28.125ZM24.75 28.125C24.75 28.4234 24.6315 28.7095 24.4205 28.9205C24.2095 29.1315 23.9234 29.25 23.625 29.25C23.3266 29.25 23.0405 29.1315 22.8295 28.9205C22.6185 28.7095 22.5 28.4234 22.5 28.125V27.2047C22.5 27.0922 22.5915 27 22.7048 27H24.5453C24.6578 27 24.75 27.0915 24.75 27.2047V28.125Z" fill="#1B0B47"/>
        <path d="M29.625 27.375H32.625M22.125 27.375H25.125H22.125Z" stroke="#1B0B47" stroke-linecap="round"/>
        <path d="M21 34.5C21 33.9033 21.2371 33.331 21.659 32.909C22.081 32.4871 22.6533 32.25 23.25 32.25H30C30.5967 32.25 31.169 32.4871 31.591 32.909C32.0129 33.331 32.25 33.9033 32.25 34.5H21Z" fill="#AD3A20"/>
    </g>

</svg>
