<svg width="48" height="48" viewBox="0 0 48 48" fill="none"
    xmlns="http://www.w3.org/2000/svg">
    <defs>
        <clipPath id="clip0">
            <rect width="48" height="48" rx="24" fill="white"/>
        </clipPath>
    </defs>
    <g clip-path="url(#clip0)">
        <path d="M48 24C48 10.7452 37.2548 0 24 0C10.7452 0 0 10.7452 0 24C0 37.2548 10.7452 48 24 48C37.2548 48 48 37.2548 48 24Z" fill="#4C6FFF"/>
        <path d="M13.5 31.5C15.5711 31.5 17.25 29.8211 17.25 27.75C17.25 25.6789 15.5711 24 13.5 24C11.4289 24 9.75 25.6789 9.75 27.75C9.75 29.8211 11.4289 31.5 13.5 31.5Z" fill="#68463C"/>
        <path d="M13.5 30.75H26.25V49.4025C26.25 49.4025 23.5177 51 19.875 51C16.2323 51 13.5 48.3923 13.5 48.3923V30.75Z" fill="#68463C"/>
        <path d="M26.1082 39.834C26.1082 43.8727 25.4557 43.4902 21.2084 43.4902C16.9612 43.4902 15.0014 40.2165 15.0014 36.1777C15.0014 32.1397 14.8402 28.5 18.2677 28.5C27.9599 28.857 26.1082 35.7952 26.1082 39.834Z" fill="#553329"/>
        <path d="M34.4146 27.075C34.4146 33.7665 33.3751 41.9948 25.1251 41.9948C16.8751 41.9948 13.0711 33.7665 13.0711 27.075C11.2501 19.125 11.6251 9.75 24.0001 9.75C36.3751 9.75 34.4146 20.3827 34.4146 27.075V27.075Z" fill="#836055"/>
        <path d="M28.5 30.75H27.75C27.3358 30.75 27 31.0858 27 31.5C27 31.9142 27.3358 32.25 27.75 32.25H28.5C28.9142 32.25 29.25 31.9142 29.25 31.5C29.25 31.0858 28.9142 30.75 28.5 30.75Z" fill="#68463C"/>
        <path d="M28.5 45H12C8.27208 45 5.25 48.0221 5.25 51.75V55.5C5.25 59.2279 8.27208 62.25 12 62.25H28.5C32.2279 62.25 35.25 59.2279 35.25 55.5V51.75C35.25 48.0221 32.2279 45 28.5 45Z" fill="#FF4DD8"/>
        <path fill-rule="evenodd" clip-rule="evenodd" d="M21.0885 20.5979C26.9355 21.4544 37.1985 22.9574 38.25 13.4999C39 6.74995 28.875 -1.12505 18 5.99995C11.1675 7.01245 9.45825 12.2084 9.069 16.6904C8.54221 17.2467 8.24904 17.9839 8.25 18.7499C8.25 19.1474 8.32725 19.5277 8.4675 19.8749C8.32725 20.2222 8.25 20.6024 8.25 20.9999C8.25 21.8294 8.58675 22.5802 9.1305 23.1224C9.00469 23.535 8.96929 23.9697 9.02673 24.3972C9.08416 24.8246 9.23307 25.2346 9.46332 25.5993C9.69356 25.9639 9.99972 26.2747 10.3609 26.5103C10.7221 26.7459 11.1299 26.9009 11.5564 26.9647C11.983 27.0284 12.4182 26.9995 12.8325 26.8798C13.2469 26.7601 13.6305 26.5525 13.9574 26.2711C14.2842 25.9898 14.5465 25.6412 14.7264 25.2493C14.9064 24.8573 14.9997 24.4312 15 23.9999C15.4578 24 15.9095 23.8953 16.3205 23.6939C16.7316 23.4924 17.0911 23.1996 17.3715 22.8378C17.6519 22.476 17.8458 22.0549 17.9384 21.6066C18.031 21.1583 18.0197 20.6947 17.9055 20.2514C17.937 20.2499 17.9685 20.2499 18 20.2499C18.714 20.2499 19.7925 20.4074 21.0885 20.5979V20.5979Z" fill="#1B0B47"/>
        <path d="M21.6968 34.5C21.6968 34.3011 21.7758 34.1103 21.9164 33.9697C22.0571 33.829 22.2479 33.75 22.4468 33.75H29.304C29.5029 33.75 29.6937 33.829 29.8344 33.9697C29.975 34.1103 30.054 34.3011 30.054 34.5C30.054 35.4946 29.6589 36.4484 28.9557 37.1517C28.2524 37.8549 27.2986 38.25 26.304 38.25H25.4468C24.4522 38.25 23.4984 37.8549 22.7951 37.1517C22.0919 36.4484 21.6968 35.4946 21.6968 34.5V34.5Z" fill="#66253C"/>
        <path fill-rule="evenodd" clip-rule="evenodd" d="M27.5662 38.0325C27.1611 38.177 26.7341 38.2506 26.304 38.25H25.4467C24.4781 38.25 23.5471 37.8753 22.8486 37.2042C22.1502 36.5331 21.7385 35.6179 21.6997 34.65C22.2727 34.4355 23.1232 34.4603 23.9625 34.485C24.2295 34.4925 24.495 34.5 24.75 34.5C26.4075 34.5 27.75 35.6753 27.75 37.125C27.75 37.4438 27.6847 37.7498 27.5662 38.0325V38.0325Z" fill="#B03E67"/>
        <path d="M22.5 33.75H30V34.5C30 34.6989 29.921 34.8897 29.7803 35.0303C29.6397 35.171 29.4489 35.25 29.25 35.25H23.25C23.0511 35.25 22.8603 35.171 22.7197 35.0303C22.579 34.8897 22.5 34.6989 22.5 34.5V33.75Z" fill="white"/>
        <path d="M24.75 28.125C24.75 27.5037 24.2463 27 23.625 27C23.0037 27 22.5 27.5037 22.5 28.125V28.875C22.5 29.4963 23.0037 30 23.625 30C24.2463 30 24.75 29.4963 24.75 28.875V28.125Z" fill="#1B0B47"/>
        <path d="M32.25 28.125C32.25 27.5037 31.7463 27 31.125 27C30.5037 27 30 27.5037 30 28.125V28.875C30 29.4963 30.5037 30 31.125 30C31.7463 30 32.25 29.4963 32.25 28.875V28.125Z" fill="#1B0B47"/>
    </g>

</svg>
