<svg width="48" height="48" viewBox="0 0 48 48" fill="none"
    xmlns="http://www.w3.org/2000/svg">
    <defs>
        <clipPath id="clip0">
            <rect width="48" height="48" rx="24" fill="white"/>
        </clipPath>
    </defs>
    <g clip-path="url(#clip0)">
        <path d="M48 24C48 10.7452 37.2548 0 24 0C10.7452 0 0 10.7452 0 24C0 37.2548 10.7452 48 24 48C37.2548 48 48 37.2548 48 24Z" fill="#6F6FFB"/>
        <path d="M13.5 31.5C15.5711 31.5 17.25 29.8211 17.25 27.75C17.25 25.6789 15.5711 24 13.5 24C11.4289 24 9.75 25.6789 9.75 27.75C9.75 29.8211 11.4289 31.5 13.5 31.5Z" fill="#68463C"/>
        <path d="M13.5 30.75H26.25V49.4025C26.25 49.4025 23.5177 51 19.875 51C16.2323 51 13.5 48.3923 13.5 48.3923V30.75Z" fill="#68463C"/>
        <path d="M26.25 40.401C26.25 44.6415 25.5885 44.2395 21.2872 44.2395C16.986 44.2395 15.0015 40.8022 15.0015 36.5617C15.0015 32.3212 14.838 28.5 18.309 28.5C28.125 28.875 26.25 36.1605 26.25 40.401Z" fill="#553329"/>
        <path d="M34.4146 27.075C34.4146 33.7665 37.1791 41.9948 25.1251 41.9948C13.0711 41.9948 13.0711 33.7665 13.0711 27.075C11.2501 19.125 11.6251 9.75 24.0001 9.75C36.3751 9.75 34.4146 20.3827 34.4146 27.075V27.075Z" fill="#836055"/>
        <path d="M28.5 30.75H27.75C27.3358 30.75 27 31.0858 27 31.5C27 31.9142 27.3358 32.25 27.75 32.25H28.5C28.9142 32.25 29.25 31.9142 29.25 31.5C29.25 31.0858 28.9142 30.75 28.5 30.75Z" fill="#68463C"/>
        <path d="M28.5 45H12C8.27208 45 5.25 48.0221 5.25 51.75V55.5C5.25 59.2279 8.27208 62.25 12 62.25H28.5C32.2279 62.25 35.25 59.2279 35.25 55.5V51.75C35.25 48.0221 32.2279 45 28.5 45Z" fill="#E05A33"/>
        <path d="M15.5048 21.165V25.6793C15.5048 26.25 15.0001 27 14.6251 27.375C14.2501 27.75 13.1251 28.5 12.4876 28.5C11.8516 28.5 9.8333 28.1618 8.86805 26.8073C7.9028 25.4535 8.1983 18.3158 8.86805 16.6523C9.53705 14.9888 12.0053 11.4863 15.5056 8.81326C18.0406 6.87676 21.2543 5.27551 25.1588 4.80451C43.8638 2.54701 36.9136 15.7395 34.5001 19.125C30.3751 17.625 27.3751 17.25 21.9623 17.9865C16.5496 18.7238 15.9503 19.473 15.5048 21.1658V21.165Z" fill="#1B0B47"/>
        <path d="M21.6968 34.5C21.6968 34.3011 21.7758 34.1103 21.9164 33.9697C22.0571 33.829 22.2479 33.75 22.4468 33.75H29.304C29.5029 33.75 29.6937 33.829 29.8344 33.9697C29.975 34.1103 30.054 34.3011 30.054 34.5C30.054 35.4946 29.6589 36.4484 28.9557 37.1517C28.2524 37.8549 27.2986 38.25 26.304 38.25H25.4468C24.4522 38.25 23.4984 37.8549 22.7951 37.1517C22.0919 36.4484 21.6968 35.4946 21.6968 34.5V34.5Z" fill="#66253C"/>
        <path fill-rule="evenodd" clip-rule="evenodd" d="M27.5662 38.0325C27.1611 38.177 26.7341 38.2506 26.304 38.25H25.4467C24.4781 38.25 23.5471 37.8753 22.8486 37.2042C22.1502 36.5331 21.7385 35.6179 21.6997 34.65C22.2727 34.4355 23.1232 34.4603 23.9625 34.485C24.2295 34.4925 24.495 34.5 24.75 34.5C26.4075 34.5 27.75 35.6753 27.75 37.125C27.75 37.4438 27.6847 37.7498 27.5662 38.0325V38.0325Z" fill="#B03E67"/>
        <path d="M22.5 33.75H30V34.5C30 34.6989 29.921 34.8897 29.7803 35.0303C29.6397 35.171 29.4489 35.25 29.25 35.25H23.25C23.0511 35.25 22.8603 35.171 22.7197 35.0303C22.579 34.8897 22.5 34.6989 22.5 34.5V33.75Z" fill="white"/>
        <path d="M24 33.975C24 33.9153 24.0237 33.8581 24.0659 33.8159C24.1081 33.7737 24.1653 33.75 24.225 33.75H25.275C25.3347 33.75 25.3919 33.7737 25.4341 33.8159C25.4763 33.8581 25.5 33.9153 25.5 33.975V35.775C25.5 35.8347 25.4763 35.8919 25.4341 35.9341C25.3919 35.9763 25.3347 36 25.275 36H24.225C24.1653 36 24.1081 35.9763 24.0659 35.9341C24.0237 35.8919 24 35.8347 24 35.775V33.975V33.975Z" fill="#B03E67"/>
        <path d="M22.5 28.125C22.5 27.8266 22.6185 27.5405 22.8295 27.3295C23.0405 27.1185 23.3266 27 23.625 27C23.9234 27 24.2095 27.1185 24.4205 27.3295C24.6315 27.5405 24.75 27.8266 24.75 28.125V29.0453C24.75 29.1578 24.6585 29.25 24.5453 29.25H22.7048C22.6504 29.25 22.5984 29.2284 22.56 29.19C22.5216 29.1516 22.5 29.0996 22.5 29.0453V28.125V28.125ZM30 28.125C30 27.8266 30.1185 27.5405 30.3295 27.3295C30.5405 27.1185 30.8266 27 31.125 27C31.4234 27 31.7095 27.1185 31.9205 27.3295C32.1315 27.5405 32.25 27.8266 32.25 28.125V29.0453C32.25 29.1578 32.1585 29.25 32.0453 29.25H30.2047C30.1504 29.25 30.0984 29.2284 30.06 29.19C30.0216 29.1516 30 29.0996 30 29.0453V28.125V28.125Z" fill="#1B0B47"/>
        <path d="M22.7017 30.4035C24.47 30.4035 25.9035 28.97 25.9035 27.2018C25.9035 25.4335 24.47 24 22.7017 24C20.9335 24 19.5 25.4335 19.5 27.2018C19.5 28.97 20.9335 30.4035 22.7017 30.4035Z" stroke="white" stroke-width="2"/>
        <path d="M33.2018 30.4035C34.97 30.4035 36.4035 28.97 36.4035 27.2018C36.4035 25.4335 34.97 24 33.2018 24C31.4335 24 30 25.4335 30 27.2018C30 28.97 31.4335 30.4035 33.2018 30.4035Z" stroke="white" stroke-width="2"/>
        <path d="M25.4888 26.328L30.7388 26.25" stroke="white" stroke-width="2"/>
        <path d="M21 34.5C21 33.9033 21.2371 33.331 21.659 32.909C22.081 32.4871 22.6533 32.25 23.25 32.25H30C30.5967 32.25 31.169 32.4871 31.591 32.909C32.0129 33.331 32.25 33.9033 32.25 34.5H21Z" fill="#1B0B47"/>
    </g>

</svg>
