<svg width="413" height="356" viewBox="0 0 413 356" fill="none"
    xmlns="http://www.w3.org/2000/svg">
    <path d="M221.951 80.8849H220.086V29.6522C220.086 21.7879 216.97 14.2458 211.424 8.68493C205.878 3.12407 198.356 9.80611e-06 190.512 1.88191e-10H82.2556C78.3719 -1.38724e-05 74.5263 0.766948 70.9382 2.25709C67.3502 3.74724 64.09 5.93139 61.3438 8.68483C58.5976 11.4383 56.4192 14.7071 54.933 18.3046C53.4467 21.9022 52.6818 25.758 52.6818 29.652V310.719C52.6818 314.613 53.4467 318.469 54.9329 322.066C56.4191 325.664 58.5975 328.933 61.3437 331.686C64.0899 334.44 67.35 336.624 70.9381 338.114C74.5261 339.604 78.3718 340.371 82.2555 340.371H190.512C194.396 340.371 198.242 339.604 201.83 338.114C205.418 336.624 208.678 334.44 211.424 331.686C214.17 328.933 216.349 325.664 217.835 322.066C219.321 318.469 220.086 314.613 220.086 310.719V117.353H221.951V80.8849Z" fill="#3F3D56"/>
    <path d="M191.483 8.41602H177.352C178.002 10.0135 178.25 11.7466 178.074 13.4628C177.898 15.1791 177.305 16.8257 176.345 18.2576C175.385 19.6895 174.089 20.8627 172.57 21.674C171.052 22.4853 169.358 22.9097 167.637 22.9098H105.618C103.897 22.9097 102.203 22.4853 100.685 21.674C99.1661 20.8627 97.8698 19.6895 96.9101 18.2576C95.9503 16.8256 95.3565 15.1791 95.1809 13.4629C95.0053 11.7466 95.2534 10.0135 95.9032 8.41602H82.7048C76.8474 8.41601 71.2299 10.749 67.0881 14.9018C62.9462 19.0545 60.6194 24.6869 60.6194 30.5598V311.214C60.6194 314.122 61.1906 317.002 62.3005 319.688C63.4104 322.375 65.0372 324.816 67.088 326.872C69.1388 328.929 71.5735 330.56 74.253 331.673C76.9326 332.785 79.8044 333.358 82.7047 333.358H191.483C197.34 333.358 202.958 331.025 207.099 326.872C211.241 322.72 213.568 317.087 213.568 311.214V30.5599C213.568 27.6519 212.997 24.7724 211.887 22.0858C210.777 19.3992 209.15 16.958 207.1 14.9018C205.049 12.8456 202.614 11.2144 199.935 10.1016C197.255 8.98878 194.383 8.41601 191.483 8.41602H191.483ZM189.109 138.613C189.104 140.133 188.5 141.59 187.428 142.664C186.356 143.739 184.904 144.345 183.388 144.349H155.739C154.223 144.345 152.77 143.739 151.699 142.664C150.627 141.59 150.023 140.133 150.018 138.613V137.18C150.023 135.66 150.627 134.203 151.699 133.129C152.77 132.054 154.223 131.448 155.739 131.444H183.388C184.904 131.448 186.356 132.054 187.428 133.129C188.5 134.203 189.104 135.66 189.109 137.18V138.613ZM192.207 113.281C192.203 114.801 191.599 116.257 190.527 117.332C189.455 118.406 188.003 119.012 186.487 119.016H87.3304C85.8146 119.012 84.3621 118.406 83.2902 117.332C82.2184 116.257 81.6142 114.801 81.6098 113.281V111.847C81.6143 110.327 82.2184 108.871 83.2902 107.796C84.3621 106.721 85.8146 106.115 87.3304 106.111H186.487C188.003 106.115 189.455 106.721 190.527 107.796C191.599 108.871 192.203 110.327 192.207 111.847V113.281ZM192.207 87.9479C192.203 89.4678 191.599 90.9241 190.527 91.9988C189.455 93.0735 188.003 93.6792 186.487 93.6836H87.3304C85.8146 93.6792 84.3621 93.0735 83.2902 91.9988C82.2184 90.9241 81.6142 89.4678 81.6098 87.9479V86.514C81.6143 84.9941 82.2184 83.5378 83.2902 82.4631C84.3621 81.3884 85.8146 80.7827 87.3304 80.7783H186.487C188.003 80.7827 189.455 81.3884 190.527 82.4631C191.599 83.5378 192.203 84.9941 192.207 86.514V87.9479ZM192.207 62.6152C192.203 64.135 191.599 65.5913 190.527 66.666C189.455 67.7407 188.003 68.3464 186.487 68.3509H87.3304C85.8146 68.3464 84.3621 67.7407 83.2902 66.666C82.2184 65.5913 81.6142 64.135 81.6098 62.6152V61.1812C81.6143 59.6614 82.2184 58.2051 83.2902 57.1304C84.3621 56.0557 85.8146 55.45 87.3304 55.4455H186.487C188.003 55.45 189.455 56.0557 190.527 57.1304C191.599 58.2051 192.203 59.6614 192.207 61.1812V62.6152Z" fill="white"/>
    <path d="M89.4757 116.148C91.3186 116.148 92.8127 114.65 92.8127 112.802C92.8127 110.955 91.3186 109.457 89.4757 109.457C87.6327 109.457 86.1387 110.955 86.1387 112.802C86.1387 114.65 87.6327 116.148 89.4757 116.148Z" fill="white"/>
    <path d="M100.44 116.148C102.283 116.148 103.777 114.65 103.777 112.802C103.777 110.955 102.283 109.457 100.44 109.457C98.5971 109.457 97.103 110.955 97.103 112.802C97.103 114.65 98.5971 116.148 100.44 116.148Z" fill="white"/>
    <path d="M111.404 116.148C113.247 116.148 114.741 114.65 114.741 112.802C114.741 110.955 113.247 109.457 111.404 109.457C109.561 109.457 108.067 110.955 108.067 112.802C108.067 114.65 109.561 116.148 111.404 116.148Z" fill="white"/>
    <path d="M122.369 116.148C124.212 116.148 125.706 114.65 125.706 112.802C125.706 110.955 124.212 109.457 122.369 109.457C120.526 109.457 119.032 110.955 119.032 112.802C119.032 114.65 120.526 116.148 122.369 116.148Z" fill="white"/>
    <path d="M158.122 141.481C159.965 141.481 161.459 139.983 161.459 138.135C161.459 136.288 159.965 134.79 158.122 134.79C156.279 134.79 154.785 136.288 154.785 138.135C154.785 139.983 156.279 141.481 158.122 141.481Z" fill="white"/>
    <path d="M169.087 141.481C170.93 141.481 172.424 139.983 172.424 138.135C172.424 136.288 170.93 134.79 169.087 134.79C167.244 134.79 165.75 136.288 165.75 138.135C165.75 139.983 167.244 141.481 169.087 141.481Z" fill="white"/>
    <path d="M180.051 141.481C181.894 141.481 183.388 139.983 183.388 138.135C183.388 136.288 181.894 134.79 180.051 134.79C178.208 134.79 176.714 136.288 176.714 138.135C176.714 139.983 178.208 141.481 180.051 141.481Z" fill="white"/>
    <path d="M192.975 181.487H79.8893C77.2325 181.487 74.6846 182.545 72.806 184.429C70.9273 186.312 69.872 188.867 69.8719 191.531V246.774C69.8719 249.438 70.9273 251.993 72.806 253.876C74.6846 255.76 77.2325 256.818 79.8893 256.818H192.975C195.631 256.818 198.179 255.76 200.058 253.876C201.936 251.993 202.992 249.438 202.992 246.774V191.531C202.992 188.867 201.936 186.312 200.058 184.429C198.179 182.545 195.631 181.487 192.975 181.487H192.975ZM77.0914 188.338C77.3147 188.298 82.61 187.394 86.9948 190.04C91.3793 192.685 93.0639 197.799 93.1333 198.015L93.3106 198.567L92.7416 198.668C91.9298 198.795 91.1091 198.856 90.2876 198.849C87.6813 198.899 85.1092 198.249 82.838 196.966C78.4535 194.322 76.7691 189.207 76.6996 188.991L76.5224 188.44L77.0914 188.338ZM101.639 239.628H81.4695C79.9985 239.628 78.5876 239.042 77.5474 237.999C76.5072 236.956 75.9229 235.542 75.9229 234.067C75.9229 232.592 76.5072 231.177 77.5474 230.134C78.5876 229.092 79.9985 228.506 81.4695 228.506H101.639C103.11 228.506 104.521 229.092 105.561 230.134C106.601 231.177 107.186 232.592 107.186 234.067C107.186 235.542 106.601 236.956 105.561 237.999C104.521 239.042 103.11 239.628 101.639 239.628ZM193.411 238.617C193.407 240.225 192.768 241.765 191.634 242.902C190.5 244.039 188.964 244.679 187.36 244.684H172.233C170.63 244.679 169.093 244.039 167.96 242.902C166.826 241.765 166.187 240.225 166.182 238.617V229.517C166.187 227.909 166.826 226.369 167.96 225.232C169.093 224.095 170.63 223.455 172.233 223.45H187.36C188.964 223.455 190.5 224.095 191.634 225.232C192.768 226.369 193.407 227.909 193.411 229.517L193.411 238.617Z" fill="#FF9300"/>
    <path d="M177.11 236.742H171.028C170.594 236.742 170.177 236.915 169.87 237.223C169.563 237.531 169.391 237.948 169.391 238.384C169.391 238.819 169.563 239.237 169.87 239.545C170.177 239.852 170.594 240.025 171.028 240.025H177.11C177.545 240.025 177.961 239.852 178.268 239.545C178.575 239.237 178.748 238.819 178.748 238.384C178.748 237.948 178.575 237.531 178.268 237.223C177.961 236.915 177.545 236.742 177.11 236.742Z" fill="#3F3D56"/>
    <path d="M188.339 236.742H182.257C181.823 236.742 181.406 236.915 181.099 237.223C180.792 237.531 180.619 237.948 180.619 238.384C180.619 238.819 180.792 239.237 181.099 239.545C181.406 239.852 181.823 240.025 182.257 240.025H188.339C188.773 240.025 189.19 239.852 189.497 239.545C189.804 239.237 189.977 238.819 189.977 238.384C189.977 237.948 189.804 237.531 189.497 237.223C189.19 236.915 188.773 236.742 188.339 236.742Z" fill="#3F3D56"/>
    <path d="M177.109 232.107H171.027C170.593 232.107 170.176 232.28 169.869 232.588C169.562 232.896 169.39 233.313 169.39 233.749C169.39 234.184 169.562 234.602 169.869 234.91C170.176 235.218 170.593 235.391 171.027 235.391H177.109C177.544 235.391 177.96 235.218 178.267 234.91C178.574 234.602 178.747 234.184 178.747 233.749C178.747 233.313 178.574 232.896 178.267 232.588C177.96 232.28 177.544 232.107 177.109 232.107Z" fill="#3F3D56"/>
    <path d="M188.338 232.107H182.256C181.822 232.107 181.405 232.28 181.098 232.588C180.791 232.896 180.619 233.313 180.619 233.749C180.619 234.184 180.791 234.602 181.098 234.91C181.405 235.218 181.822 235.391 182.256 235.391H188.338C188.773 235.391 189.189 235.218 189.496 234.91C189.803 234.602 189.976 234.184 189.976 233.749C189.976 233.313 189.803 232.896 189.496 232.588C189.189 232.28 188.773 232.107 188.338 232.107H188.338Z" fill="#3F3D56"/>
    <path d="M177.109 227.566H171.027C170.593 227.566 170.176 227.739 169.869 228.047C169.562 228.355 169.39 228.772 169.39 229.208C169.39 229.643 169.562 230.061 169.869 230.369C170.176 230.677 170.593 230.85 171.027 230.85H177.109C177.544 230.85 177.96 230.677 178.267 230.369C178.574 230.061 178.747 229.643 178.747 229.208C178.747 228.772 178.574 228.355 178.267 228.047C177.96 227.739 177.544 227.566 177.109 227.566Z" fill="#3F3D56"/>
    <path d="M188.338 227.566H182.256C181.822 227.566 181.405 227.739 181.098 228.047C180.791 228.355 180.619 228.772 180.619 229.208C180.619 229.643 180.791 230.061 181.098 230.369C181.405 230.677 181.822 230.85 182.256 230.85H188.338C188.773 230.85 189.189 230.677 189.496 230.369C189.803 230.061 189.976 229.643 189.976 229.208C189.976 228.772 189.803 228.355 189.496 228.047C189.189 227.739 188.773 227.566 188.338 227.566H188.338Z" fill="#3F3D56"/>
    <path d="M242.299 202.297H227.549V217.086H242.299V202.297Z" fill="#E6E6E6"/>
    <path d="M210.165 211.276H234.397V235.573H210.165V211.276ZM233.343 212.332H211.218V234.516H233.343V212.332Z" fill="#3F3D56"/>
    <path d="M48.7502 100.285H34V115.074H48.7502V100.285Z" fill="#E6E6E6"/>
    <path d="M66.1345 106.095H41.902V81.7983H66.1345V106.095ZM42.9556 105.039H65.0809V82.8547H42.9556V105.039Z" fill="#3F3D56"/>
    <path d="M272.037 346.354H265.579L262.506 321.377H272.038L272.037 346.354Z" fill="#FFB8B8"/>
    <path d="M260.965 344.503H273.421V352.366H253.123C253.123 350.281 253.949 348.281 255.42 346.806C256.891 345.332 258.885 344.503 260.965 344.503Z" fill="#2F2E41"/>
    <path d="M304.171 346.354H297.713L294.641 321.377H304.172L304.171 346.354Z" fill="#FFB8B8"/>
    <path d="M293.1 344.503H305.555V352.366H285.258C285.258 350.281 286.084 348.281 287.555 346.806C289.025 345.332 291.02 344.503 293.1 344.503Z" fill="#2F2E41"/>
    <path d="M239.639 257.03C239.174 256.343 238.865 255.563 238.734 254.744C238.602 253.925 238.652 253.087 238.878 252.289C239.105 251.492 239.503 250.753 240.045 250.127C240.587 249.5 241.259 249 242.015 248.662L263.969 187.99L274.772 193.901L249.705 251.881C250.187 253.191 250.174 254.633 249.666 255.934C249.159 257.235 248.193 258.304 246.953 258.938C245.712 259.573 244.282 259.729 242.934 259.378C241.586 259.026 240.413 258.19 239.639 257.03Z" fill="#FFB8B8"/>
    <path d="M300.873 268.43C300.155 268.017 299.536 267.452 299.06 266.774C298.584 266.095 298.261 265.321 298.116 264.504C297.971 263.687 298.006 262.849 298.219 262.047C298.432 261.246 298.817 260.501 299.349 259.865L292.547 195.685L304.841 196.248L307.668 259.377C308.675 260.343 309.293 261.645 309.406 263.037C309.519 264.429 309.118 265.814 308.281 266.93C307.443 268.046 306.226 268.815 304.861 269.091C303.496 269.368 302.076 269.132 300.873 268.43V268.43Z" fill="#FFB8B8"/>
    <path d="M281.26 176.752C288.406 176.752 294.198 170.944 294.198 163.78C294.198 156.615 288.406 150.807 281.26 150.807C274.114 150.807 268.321 156.615 268.321 163.78C268.321 170.944 274.114 176.752 281.26 176.752Z" fill="#FFB8B8"/>
    <path d="M300.79 253.834H261.782L261.829 253.529C261.9 253.074 268.781 207.873 263.706 193.085C263.196 191.632 263.241 190.041 263.831 188.619C264.422 187.197 265.516 186.044 266.903 185.383H266.903C274.158 181.957 288.084 177.739 299.838 187.976C301.568 189.507 302.919 191.42 303.784 193.565C304.648 195.71 305.004 198.027 304.822 200.333L300.79 253.834Z" fill="#2871FE"/>
    <path d="M269.274 214.553L251.713 210.981L259.945 191.422C260.437 189.528 261.659 187.907 263.342 186.914C265.025 185.922 267.032 185.639 268.923 186.129C270.814 186.618 272.433 187.839 273.427 189.525C274.421 191.21 274.707 193.221 274.224 195.118L269.274 214.553Z" fill="#2871FE"/>
    <path d="M291.766 221.186L290.711 196.92C289.91 192.359 292.514 188.047 296.52 187.342C300.526 186.639 304.438 189.803 305.243 194.398L309.211 217.072L291.766 221.186Z" fill="#2871FE"/>
    <path d="M299.492 250.929C305.769 274.896 306.453 305.369 304.76 338.608L296.331 337.552L281.054 274.169L272.626 338.608L263.143 338.08C260.311 303.204 257.552 273.263 262.09 253.57L299.492 250.929Z" fill="#2F2E41"/>
    <path d="M289.785 173.805C287.371 176.383 282.889 174.999 282.574 171.477C282.549 171.204 282.551 170.929 282.579 170.656C282.742 169.096 283.641 167.679 283.425 166.032C283.377 165.622 283.224 165.231 282.983 164.897C281.059 162.314 276.544 166.052 274.729 163.714C273.616 162.281 274.924 160.024 274.07 158.421C272.943 156.307 269.603 157.35 267.509 156.192C265.179 154.903 265.319 151.319 266.853 149.139C268.723 146.48 272.002 145.062 275.241 144.857C278.479 144.653 281.696 145.531 284.719 146.712C288.154 148.054 291.561 149.909 293.675 152.938C296.246 156.621 296.493 161.573 295.208 165.88C294.425 168.5 291.756 171.7 289.785 173.805Z" fill="#2F2E41"/>
</svg>
