<svg width="405" height="291" viewBox="0 0 405 291" fill="none"
    xmlns="http://www.w3.org/2000/svg">
    <g clip-path="url(#clip0)">
        <path d="M353.562 100.11C338.905 89.1733 315.947 78.83 290.576 71.7327C267.476 65.2704 244.945 62.1504 227.129 62.9472L227.036 60.8792C245.065 60.0734 267.829 63.2196 291.136 69.7396C316.744 76.9031 339.95 87.3685 354.804 98.4522L353.562 100.11Z" fill="#CCCCCC"/>
        <path d="M352.041 108.534C352.054 118.224 350.019 127.808 346.068 136.659C345.738 137.4 345.395 138.134 345.037 138.862C338.166 152.909 326.728 164.217 312.59 170.943C298.452 177.669 282.447 179.416 267.187 175.897C251.927 172.379 238.312 163.803 228.562 151.57C218.812 139.336 213.503 124.166 213.5 108.534C213.5 106.934 213.555 105.347 213.664 103.771C213.716 102.97 213.783 102.174 213.865 101.383C215.702 83.7612 224.247 67.5158 237.735 55.999C251.224 44.4822 268.628 38.5728 286.355 39.4903C304.082 40.4078 320.78 48.0822 333.002 60.9298C345.225 73.7774 352.04 90.8178 352.041 108.534V108.534Z" fill="#6C63FF"/>
        <path opacity="0.1" d="M346.068 136.659C345.738 137.4 345.394 138.134 345.037 138.862C343.013 139.081 340.882 139.24 338.645 139.34C336.793 139.423 334.887 139.464 332.94 139.464C315.929 139.464 295.457 136.33 274.543 130.48C251.236 123.96 230.15 114.84 215.168 104.798C214.658 104.457 214.156 104.114 213.664 103.772C213.716 102.97 213.783 102.174 213.865 101.383C214.66 101.948 215.479 102.514 216.323 103.08C231.129 113.002 252.003 122.025 275.103 128.487C295.834 134.287 316.114 137.394 332.929 137.394C334.852 137.394 336.726 137.353 338.552 137.272C341.211 137.152 343.716 136.948 346.068 136.659Z" fill="black"/>
        <path d="M332.94 137.808C315.93 137.809 295.457 134.674 274.544 128.824C251.237 122.304 230.15 113.183 215.168 103.142C199.872 92.8916 192.7 82.791 194.972 74.7012C197.244 66.6113 208.631 61.7026 227.036 60.8794L227.129 62.9473C218.534 63.3317 211.529 64.6068 206.31 66.737C201.103 68.8619 197.96 71.7295 196.969 75.2599C195.978 78.7903 197.169 82.8703 200.511 87.3867C203.861 91.9141 209.181 96.6368 216.324 101.424C231.128 111.346 252.003 120.369 275.104 126.831C295.835 132.63 316.113 135.738 332.93 135.739C334.851 135.739 336.725 135.698 338.551 135.616C347.146 135.232 354.151 133.957 359.37 131.827C364.577 129.702 367.72 126.834 368.711 123.304C370.491 116.965 365.111 108.728 353.563 100.11L354.804 98.4524C360.747 102.887 365.147 107.258 367.88 111.444C370.81 115.932 371.762 120.11 370.708 123.863C368.436 131.952 357.049 136.861 338.644 137.684C336.792 137.767 334.887 137.808 332.94 137.808Z" fill="#CCCCCC"/>
        <path d="M284.603 26.9282C285.041 26.9282 285.397 26.5735 285.397 26.136C285.397 25.6984 285.041 25.3438 284.603 25.3438C284.165 25.3438 283.809 25.6984 283.809 26.136C283.809 26.5735 284.165 26.9282 284.603 26.9282Z" fill="#F2F2F2"/>
        <path d="M179.296 61.3064C180.05 61.3064 180.662 60.6962 180.662 59.9435C180.662 59.1908 180.05 58.5806 179.296 58.5806C178.542 58.5806 177.931 59.1908 177.931 59.9435C177.931 60.6962 178.542 61.3064 179.296 61.3064Z" fill="#CCCCCC"/>
        <path d="M176.386 115.98C177.876 115.98 179.083 114.775 179.083 113.288C179.083 111.801 177.876 110.595 176.386 110.595C174.896 110.595 173.688 111.801 173.688 113.288C173.688 114.775 174.896 115.98 176.386 115.98Z" fill="#CCCCCC"/>
        <path d="M338.315 32.6841C339.308 32.6841 340.113 31.8807 340.113 30.8897C340.113 29.8986 339.308 29.0952 338.315 29.0952C337.322 29.0952 336.517 29.8986 336.517 30.8897C336.517 31.8807 337.322 32.6841 338.315 32.6841Z" fill="#CCCCCC"/>
        <path d="M402.081 108.279C403.693 108.279 405 106.974 405 105.365C405 103.756 403.693 102.452 402.081 102.452C400.469 102.452 399.162 103.756 399.162 105.365C399.162 106.974 400.469 108.279 402.081 108.279Z" fill="#CCCCCC"/>
        <path d="M379.255 60.0826C379.947 60.0826 380.507 59.5229 380.507 58.8325C380.507 58.1422 379.947 57.5825 379.255 57.5825C378.563 57.5825 378.003 58.1422 378.003 58.8325C378.003 59.5229 378.563 60.0826 379.255 60.0826Z" fill="#CCCCCC"/>
        <path d="M227.187 44.7234C228.266 44.7234 229.141 43.8503 229.141 42.7733C229.141 41.6963 228.266 40.8232 227.187 40.8232C226.108 40.8232 225.233 41.6963 225.233 42.7733C225.233 43.8503 226.108 44.7234 227.187 44.7234Z" fill="#CCCCCC"/>
        <path d="M374.871 100.708C375.563 100.708 376.124 100.148 376.124 99.4575C376.124 98.7672 375.563 98.2075 374.871 98.2075C374.18 98.2075 373.619 98.7672 373.619 99.4575C373.619 100.148 374.18 100.708 374.871 100.708Z" fill="#CCCCCC"/>
        <path d="M182.736 152.871C183.597 152.871 184.295 152.175 184.295 151.316C184.295 150.456 183.597 149.76 182.736 149.76C181.875 149.76 181.177 150.456 181.177 151.316C181.177 152.175 181.875 152.871 182.736 152.871Z" fill="#CCCCCC"/>
        <path d="M214.222 174.655C215.154 174.655 215.91 173.901 215.91 172.97C215.91 172.039 215.154 171.285 214.222 171.285C213.29 171.285 212.534 172.039 212.534 172.97C212.534 173.901 213.29 174.655 214.222 174.655Z" fill="#CCCCCC"/>
        <path d="M340.571 183.232H338.478V181.145H337.356V183.232H335.265V184.352H337.356V186.44H338.478V184.352H340.571V183.232Z" fill="#CCCCCC"/>
        <path d="M388.851 172.546H387.287V170.985H386.447V172.546H384.884V173.384H386.447V174.945H387.287V173.384H388.851V172.546Z" fill="#CCCCCC"/>
        <path opacity="0.1" d="M242.004 143.657C245.219 143.657 247.825 141.056 247.825 137.847C247.825 134.639 245.219 132.038 242.004 132.038C238.789 132.038 236.183 134.639 236.183 137.847C236.183 141.056 238.789 143.657 242.004 143.657Z" fill="black"/>
        <path d="M242.004 120.946C246.242 120.946 249.677 117.517 249.677 113.288C249.677 109.058 246.242 105.629 242.004 105.629C237.766 105.629 234.331 109.058 234.331 113.288C234.331 117.517 237.766 120.946 242.004 120.946Z" fill="white"/>
        <path d="M242.004 102.196C239.127 102.196 236.368 103.337 234.333 105.368C232.299 107.398 231.156 110.152 231.156 113.024C231.156 119.003 242.004 138.639 242.004 138.639C242.004 138.639 252.852 119.003 252.852 113.024C252.852 111.602 252.572 110.194 252.026 108.88C251.481 107.567 250.682 106.373 249.675 105.368C248.668 104.362 247.472 103.565 246.155 103.02C244.839 102.476 243.429 102.196 242.004 102.196ZM242.004 118.305C241.01 118.305 240.038 118.011 239.211 117.46C238.384 116.908 237.74 116.125 237.359 115.208C236.979 114.291 236.879 113.282 237.073 112.309C237.267 111.335 237.746 110.441 238.449 109.74C239.152 109.038 240.048 108.56 241.023 108.367C241.998 108.173 243.009 108.272 243.928 108.652C244.847 109.032 245.632 109.675 246.184 110.5C246.736 111.325 247.031 112.295 247.031 113.288C247.031 113.947 246.901 114.599 246.649 115.208C246.396 115.817 246.026 116.37 245.559 116.836C245.092 117.302 244.538 117.671 243.928 117.923C243.318 118.175 242.664 118.305 242.004 118.305V118.305Z" fill="#FF9300"/>
        <path d="M168.765 229.455L174.872 228.763L175.105 204.924L166.092 205.946L168.765 229.455Z" fill="#FFB8B8"/>
        <path d="M187.293 233.09L168.1 235.264L167.258 227.862L179.036 226.529C181.003 226.306 182.978 226.872 184.526 228.102C186.075 229.333 187.07 231.127 187.293 233.09V233.09Z" fill="#2F2E41"/>
        <path d="M105.959 229.075L112.105 229.074L115.029 205.413L105.958 205.414L105.959 229.075Z" fill="#FFB8B8"/>
        <path d="M123.959 234.77L104.642 234.771L104.642 227.322L116.495 227.322C118.475 227.321 120.373 228.106 121.773 229.503C123.172 230.9 123.959 232.794 123.959 234.77V234.77V234.77Z" fill="#2F2E41"/>
        <path d="M150.056 123.265L153.566 134.658L172.616 175.803L177.629 214.831L166.099 215.331L159.08 179.305L135.017 153.286L113.961 221.335L104.436 220.335C104.436 220.335 112.457 132.271 123.486 123.265C123.486 123.265 141.534 114.759 150.056 123.265Z" fill="#2F2E41"/>
        <path d="M134.49 74.1065C141.29 74.1065 146.803 68.6044 146.803 61.8172C146.803 55.0299 141.29 49.5278 134.49 49.5278C127.689 49.5278 122.177 55.0299 122.177 61.8172C122.177 68.6044 127.689 74.1065 134.49 74.1065Z" fill="#FFB8B8"/>
        <path d="M151.31 125.517C151.31 125.517 152.814 74.4799 131.758 77.9824C110.702 81.4849 119.475 130.77 119.475 130.77C119.475 130.77 123.987 139.777 135.017 129.77C146.046 119.762 151.31 125.517 151.31 125.517Z" fill="#2871FE"/>
        <path opacity="0.2" d="M122.233 99.4976L127.188 118.453L134.736 125.987L124.238 122.514L122.233 99.4976Z" fill="black"/>
        <path d="M151.465 147.101C150.772 146.85 150.143 146.451 149.622 145.931C149.1 145.412 148.699 144.784 148.447 144.093C148.195 143.402 148.097 142.664 148.162 141.931C148.226 141.198 148.451 140.489 148.82 139.852L137.109 126.32L146.341 125.121L156.046 138.155C157.077 138.844 157.818 139.887 158.13 141.086C158.441 142.285 158.302 143.556 157.737 144.659C157.172 145.761 156.222 146.619 155.066 147.069C153.91 147.519 152.629 147.531 151.465 147.101V147.101Z" fill="#FFB8B8"/>
        <path d="M137.207 88.3778L138.526 114.259L154.067 134.273L147.55 139.277L126.494 118.261C126.494 118.261 118.974 92.7431 124.489 85.2377C126.557 82.4232 128.836 81.6492 130.878 81.7811C132.558 81.9207 134.128 82.6684 135.294 83.8834C136.46 85.0984 137.14 86.6969 137.207 88.3778Z" fill="#2871FE"/>
        <path d="M133.025 74.7301C133.084 74.6775 133.13 74.6119 133.159 74.5386C133.188 74.4653 133.199 74.3862 133.192 74.3077C133.185 74.2292 133.16 74.1534 133.119 74.0863C133.077 74.0192 133.021 73.9627 132.953 73.9212C131.86 73.2454 130.969 72.2881 130.374 71.1499C129.78 70.0117 129.503 68.7347 129.574 67.453C129.644 66.1713 130.059 64.9323 130.776 63.866C131.492 62.7998 132.482 61.9457 133.643 61.3935C137.263 59.6708 142.169 61.011 144.845 57.7006C145.389 56.9924 145.774 56.1753 145.973 55.3052C146.172 54.4351 146.181 53.5323 145.999 52.6584C145.422 49.5318 143.067 47.2098 140.429 45.6186C137.19 43.6638 133.466 42.6537 129.68 42.7029C125.895 42.752 122.199 43.8584 119.011 45.8966C115.823 47.9348 113.271 50.8234 111.644 54.2351C110.017 57.6468 109.379 61.4452 109.804 65.1998C110.144 68.2091 111.075 71.5833 109.282 74.0265C107.704 76.1768 104.726 76.58 102.11 77.1143C96.4982 78.2602 91.0847 80.9039 87.2767 85.1742C83.4687 89.4444 81.4372 95.4356 82.5854 101.036C83.7335 106.637 88.3396 111.559 94.0008 112.427C98.6088 113.134 103.367 111.18 106.751 107.98C110.135 104.779 112.274 100.457 113.623 96.0026C115.224 90.7161 115.856 85.0195 118.747 80.3104C121.576 75.7022 127.672 72.3989 132.45 74.7988C132.542 74.8465 132.646 74.8655 132.748 74.8533C132.851 74.841 132.947 74.7981 133.025 74.7301V74.7301Z" fill="#2F2E41"/>
        <path d="M219.001 93.2782C219.064 92.7721 219.111 92.266 219.111 91.7283C219.111 91.1906 219.064 90.6845 219.001 90.1784L222.339 87.5689C222.639 87.3317 222.718 86.9047 222.529 86.5567L219.364 81.0847C219.222 80.8316 218.953 80.6893 218.668 80.6893C218.573 80.6893 218.479 80.7051 218.399 80.7367L214.46 82.3182C213.638 81.6856 212.752 81.1637 211.787 80.7684L211.185 76.5773C211.138 76.1978 210.806 75.9131 210.41 75.9131H204.082C203.687 75.9131 203.354 76.1978 203.307 76.5773L202.706 80.7684C201.741 81.1637 200.855 81.7015 200.032 82.3182L196.093 80.7367C195.998 80.7051 195.903 80.6893 195.808 80.6893C195.539 80.6893 195.27 80.8316 195.128 81.0847L191.964 86.5567C191.758 86.9047 191.853 87.3317 192.154 87.5689L195.492 90.1784C195.428 90.6845 195.381 91.2064 195.381 91.7283C195.381 92.2502 195.428 92.7721 195.492 93.2782L192.154 95.8877C191.853 96.1249 191.774 96.5519 191.964 96.8999L195.128 102.372C195.27 102.625 195.539 102.767 195.824 102.767C195.919 102.767 196.014 102.752 196.093 102.72L200.032 101.138C200.855 101.771 201.741 102.293 202.706 102.688L203.307 106.879C203.354 107.259 203.687 107.544 204.082 107.544H210.41C210.806 107.544 211.138 107.259 211.185 106.879L211.787 102.688C212.752 102.293 213.638 101.755 214.46 101.138L218.399 102.72C218.494 102.752 218.589 102.767 218.684 102.767C218.953 102.767 219.222 102.625 219.364 102.372L222.529 96.8999C222.718 96.5519 222.639 96.1249 222.339 95.8877L219.001 93.2782V93.2782ZM215.868 90.5738C215.931 91.0641 215.947 91.3962 215.947 91.7283C215.947 92.0604 215.916 92.4084 215.868 92.8828L215.647 94.6699L217.055 95.777L218.763 97.1055L217.656 99.0191L215.647 98.2125L214.001 97.5483L212.578 98.6237C211.897 99.1298 211.249 99.5094 210.6 99.7782L208.923 100.458L208.67 102.245L208.354 104.38H206.139L205.838 102.245L205.585 100.458L203.908 99.7782C203.228 99.4936 202.595 99.1298 201.962 98.6554L200.522 97.5483L198.846 98.2284L196.836 99.0349L195.729 97.1213L197.438 95.7928L198.846 94.6857L198.624 92.8986C198.577 92.4084 198.545 92.0446 198.545 91.7283C198.545 91.412 198.577 91.0482 198.624 90.5738L198.846 88.7867L197.438 87.6796L195.729 86.3511L196.836 84.4375L198.846 85.2441L200.491 85.9083L201.915 84.8329C202.595 84.3268 203.244 83.9472 203.892 83.6784L205.569 82.9983L205.822 81.2112L206.139 79.0761H208.338L208.638 81.2112L208.891 82.9983L210.568 83.6784C211.249 83.963 211.881 84.3268 212.514 84.8012L213.954 85.9083L215.631 85.2282L217.64 84.4217L218.747 86.3353L217.055 87.6796L215.647 88.7867L215.868 90.5738ZM207.246 85.4022C203.75 85.4022 200.918 88.2331 200.918 91.7283C200.918 95.2235 203.75 98.0544 207.246 98.0544C210.742 98.0544 213.574 95.2235 213.574 91.7283C213.574 88.2331 210.742 85.4022 207.246 85.4022ZM207.246 94.8913C205.506 94.8913 204.082 93.468 204.082 91.7283C204.082 89.9886 205.506 88.5653 207.246 88.5653C208.986 88.5653 210.41 89.9886 210.41 91.7283C210.41 93.468 208.986 94.8913 207.246 94.8913Z" fill="#FF9300"/>
        <path d="M300.586 137.719C299.384 137.719 298.308 138.193 297.485 138.937L286.205 132.373C286.284 132.01 286.348 131.646 286.348 131.266C286.348 130.887 286.284 130.523 286.205 130.159L297.359 123.659C298.213 124.45 299.336 124.94 300.586 124.94C303.212 124.94 305.332 122.821 305.332 120.196C305.332 117.57 303.212 115.451 300.586 115.451C297.96 115.451 295.84 117.57 295.84 120.196C295.84 120.575 295.903 120.939 295.982 121.303L284.829 127.803C283.975 127.012 282.851 126.522 281.602 126.522C278.975 126.522 276.855 128.641 276.855 131.266C276.855 133.892 278.975 136.011 281.602 136.011C282.851 136.011 283.975 135.521 284.829 134.73L296.093 141.309C296.014 141.641 295.966 141.989 295.966 142.337C295.966 144.883 298.039 146.955 300.586 146.955C303.133 146.955 305.205 144.883 305.205 142.337C305.205 139.791 303.133 137.719 300.586 137.719ZM300.586 118.614C301.456 118.614 302.168 119.326 302.168 120.196C302.168 121.066 301.456 121.777 300.586 121.777C299.716 121.777 299.004 121.066 299.004 120.196C299.004 119.326 299.716 118.614 300.586 118.614ZM281.602 132.848C280.731 132.848 280.02 132.136 280.02 131.266C280.02 130.397 280.731 129.685 281.602 129.685C282.472 129.685 283.184 130.397 283.184 131.266C283.184 132.136 282.472 132.848 281.602 132.848ZM300.586 143.95C299.716 143.95 299.004 143.239 299.004 142.369C299.004 141.499 299.716 140.787 300.586 140.787C301.456 140.787 302.168 141.499 302.168 142.369C302.168 143.239 301.456 143.95 300.586 143.95Z" fill="#FF9300"/>
        <path d="M361.621 144.061L359.896 131.947C359.453 128.831 356.78 126.522 353.631 126.522H339.298C336.15 126.522 333.476 128.831 333.033 131.947L331.309 144.061C330.961 146.497 332.844 148.663 335.296 148.663C336.372 148.663 337.384 148.236 338.143 147.477L341.719 143.919H351.211L354.771 147.477C355.53 148.236 356.558 148.663 357.618 148.663C360.086 148.663 361.969 146.497 361.621 144.061ZM358.298 145.2C358.172 145.342 357.966 145.5 357.634 145.5C357.397 145.5 357.175 145.405 357.017 145.247L352.524 140.756H340.406L335.913 145.247C335.755 145.405 335.533 145.5 335.296 145.5C334.964 145.5 334.758 145.342 334.631 145.2C334.505 145.057 334.378 144.836 334.426 144.504L336.15 132.389C336.387 130.855 337.732 129.685 339.298 129.685H353.631C355.198 129.685 356.542 130.855 356.764 132.405L358.488 144.52C358.536 144.836 358.409 145.057 358.298 145.2Z" fill="#FF9300"/>
        <path d="M341.719 131.267H340.137V134.43H336.973V136.011H340.137V139.174H341.719V136.011H344.883V134.43H341.719V131.267Z" fill="#FF9300"/>
        <path d="M354.375 139.174C355.249 139.174 355.957 138.466 355.957 137.593C355.957 136.719 355.249 136.011 354.375 136.011C353.501 136.011 352.793 136.719 352.793 137.593C352.793 138.466 353.501 139.174 354.375 139.174Z" fill="#FF9300"/>
        <path d="M351.211 134.43C352.085 134.43 352.793 133.722 352.793 132.848C352.793 131.975 352.085 131.267 351.211 131.267C350.337 131.267 349.629 131.975 349.629 132.848C349.629 133.722 350.337 134.43 351.211 134.43Z" fill="#FF9300"/>
    </g>
    <defs>
        <clipPath id="clip0">
            <rect width="405" height="291" fill="white"/>
        </clipPath>
    </defs>
</svg>
