<svg width="410" height="355" viewBox="0 0 410 355" fill="none"
    xmlns="http://www.w3.org/2000/svg">
    <g clip-path="url(#clip0)">
        <path d="M370.178 273.262C403.028 243.785 414.699 203.501 396.246 183.285C377.793 163.068 336.203 170.576 303.353 200.053C270.502 229.53 258.831 269.814 277.284 290.031C295.738 310.247 337.327 302.74 370.178 273.262Z" fill="#FF9300"/>
        <path d="M274.599 353.957C270.169 344.884 268.6 334.66 269.371 324.65C270.208 314.704 273.168 305.048 278.054 296.321C282.797 287.899 288.815 280.247 295.897 273.633C303.337 266.567 311.726 260.568 320.553 255.325C329.874 249.789 339.668 245.084 349.576 240.682C350.811 240.134 352.048 239.589 353.286 239.049C354.099 238.695 353.396 237.513 352.588 237.865C342.486 242.275 332.469 246.923 322.89 252.376C313.739 257.586 304.984 263.546 297.163 270.588C289.792 277.121 283.442 284.704 278.321 293.089C273.078 301.716 269.678 311.319 268.332 321.303C267.04 331.358 268.039 341.814 271.884 351.248C272.352 352.398 272.859 353.532 273.404 354.649C273.792 355.443 274.985 354.749 274.599 353.957V353.957Z" fill="#E6E6E6"/>
        <path d="M312.752 258.822C312.294 251.345 312.862 243.841 314.439 236.515C316.011 229.185 318.562 222.095 322.025 215.435C323.975 211.695 326.21 208.109 328.709 204.706C329.234 203.992 328.034 203.307 327.515 204.014C323.024 210.147 319.389 216.854 316.708 223.952C314.021 231.051 312.297 238.472 311.581 246.021C311.177 250.276 311.106 254.556 311.369 258.822C311.422 259.699 312.806 259.705 312.752 258.822H312.752Z" fill="#E6E6E6"/>
        <path d="M164.757 247.613C207.516 209.246 222.707 156.811 198.688 130.498C174.669 104.184 120.536 113.956 77.7777 152.323C35.0195 190.691 19.8283 243.125 43.8471 269.439C67.8659 295.753 121.999 285.981 164.757 247.613Z" fill="#FF9300"/>
        <path d="M40.3516 352.645C34.5854 340.835 32.5435 327.528 33.5474 314.5C34.545 301.554 38.5773 288.995 44.8486 277.626C50.9217 266.616 58.9487 256.761 68.073 248.095C77.7568 238.898 88.6767 231.09 100.166 224.266C112.298 217.06 125.046 210.936 137.943 205.206C139.55 204.492 141.16 203.784 142.772 203.081C143.83 202.619 142.915 201.081 141.863 201.54C128.714 207.28 115.676 213.329 103.208 220.427C91.2973 227.208 79.9018 234.965 69.7208 244.132C60.2234 252.683 51.7592 262.466 45.1962 273.419C38.372 284.648 33.9469 297.148 32.195 310.143C30.5136 323.23 31.8135 336.84 36.8175 349.119C37.4277 350.616 38.0876 352.092 38.797 353.546C39.3017 354.58 40.8547 353.676 40.3516 352.645V352.645Z" fill="#E6E6E6"/>
        <path d="M90.0116 228.818C89.4165 219.085 90.1552 209.318 92.2075 199.782C94.2534 190.241 97.5744 181.013 102.082 172.344C104.62 167.477 107.528 162.809 110.782 158.38C111.465 157.45 109.903 156.558 109.227 157.479C103.382 165.462 98.6502 174.191 95.1609 183.43C91.6636 192.67 89.4196 202.329 88.488 212.155C87.9621 217.694 87.8696 223.265 88.2113 228.818C88.2814 229.959 90.0822 229.967 90.0116 228.818L90.0116 228.818Z" fill="#E6E6E6"/>
        <path d="M248.042 12.959L227.95 45.8035L247.999 57.5676L248.042 12.959Z" fill="#8C8C8C"/>
        <path d="M228.017 45.8706L247.999 36.8408L247.974 57.5813L228.017 45.8706Z" fill="#383838"/>
        <path d="M247.955 12.959L268.048 45.8035L247.999 57.5676L247.955 12.959Z" fill="#333333"/>
        <path d="M267.981 45.8706L247.999 36.8408L248.023 57.5813L267.981 45.8706Z" fill="#141414"/>
        <path d="M228.017 49.6396L247.974 77.5035V61.3504L228.017 49.6396Z" fill="#8C8C8C"/>
        <path d="M267.932 49.6396L247.974 77.5035V61.3504L267.932 49.6396Z" fill="#333333"/>
        <path d="M248.16 101.178C237.366 101.178 226.612 93.8219 217.88 80.4645C210.201 68.7194 205.431 54.1206 205.431 42.3652C205.431 36.8018 206.536 31.2928 208.683 26.1528C210.831 21.0128 213.978 16.3425 217.946 12.4085C221.914 8.47451 226.624 5.35391 231.808 3.22486C236.992 1.09581 242.549 0 248.16 0C253.771 0 259.327 1.09581 264.511 3.22486C269.696 5.35391 274.406 8.47451 278.374 12.4085C282.341 16.3425 285.489 21.0128 287.636 26.1528C289.783 31.2928 290.889 36.8018 290.889 42.3652C290.889 54.1206 286.119 68.7194 278.44 80.4645C269.707 93.8219 258.954 101.178 248.16 101.178ZM248.16 0.996829C237.098 1.00921 226.493 5.37163 218.671 13.127C210.849 20.8824 206.449 31.3975 206.436 42.3652C206.436 65.1964 225.128 100.181 248.16 100.181C271.191 100.181 289.883 65.1964 289.883 42.3652C289.871 31.3975 285.471 20.8824 277.649 13.127C269.827 5.37163 259.222 1.00921 248.16 0.996829V0.996829Z" fill="#3F3D56"/>
        <path d="M252.188 110.149H244.132C243.755 110.149 243.384 110.066 243.044 109.904C242.705 109.743 242.407 109.508 242.171 109.217C241.936 108.926 241.769 108.586 241.684 108.222C241.598 107.859 241.596 107.481 241.678 107.117L243.232 100.181H253.087L254.642 107.117C254.723 107.481 254.722 107.859 254.636 108.222C254.551 108.586 254.384 108.926 254.149 109.217C253.913 109.508 253.615 109.743 253.275 109.904C252.936 110.066 252.565 110.149 252.188 110.149H252.188ZM244.039 101.178L242.659 107.333C242.61 107.552 242.612 107.778 242.663 107.996C242.714 108.214 242.814 108.418 242.955 108.593C243.097 108.768 243.276 108.909 243.479 109.005C243.683 109.102 243.906 109.153 244.132 109.153H252.188C252.414 109.153 252.637 109.102 252.841 109.005C253.044 108.909 253.223 108.768 253.365 108.593C253.506 108.418 253.606 108.214 253.657 107.996C253.708 107.778 253.709 107.552 253.66 107.333L252.281 101.178H244.039Z" fill="#3F3D56"/>
        <path d="M228.273 12.391C221.64 16.3848 216.87 22.8189 215.004 30.2881C214.489 32.3655 214.215 34.4946 214.188 36.6338C214.195 36.8276 214.277 37.0112 214.418 37.1459C214.558 37.2806 214.746 37.3559 214.942 37.3559C215.137 37.3559 215.325 37.2806 215.466 37.1459C215.607 37.0112 215.689 36.8276 215.696 36.6338C215.849 29.3659 218.888 22.4513 224.152 17.3912C225.628 15.9708 227.267 14.7261 229.034 13.6821C229.2 13.5786 229.318 13.4153 229.365 13.2268C229.411 13.0384 229.382 12.8394 229.283 12.6719C229.184 12.5044 229.024 12.3815 228.835 12.3291C228.647 12.2767 228.445 12.2989 228.273 12.391H228.273Z" fill="#3F3D56"/>
        <path d="M241.176 102.117C250.286 101.655 260.653 101.408 267.753 108.071C270.714 110.85 272.583 114.574 272.47 118.668C272.348 123.123 270.063 127.296 267.231 130.643C261.135 137.848 252.196 142.353 243.623 145.984C234.511 149.843 225.019 152.856 216.264 157.513C208.577 161.602 201.412 167.121 196.769 174.556C194.484 178.159 192.969 182.189 192.317 186.396C191.718 190.613 191.934 194.905 192.952 199.042C194.997 207.522 200.031 215.016 206.74 220.585C213.529 226.221 221.754 229.974 230.274 232.216C240.39 234.877 250.929 235.48 261.351 235.54C272.115 235.602 282.888 235.08 293.645 235.678C296.262 235.824 298.873 236.039 301.477 236.338C302.439 236.448 302.431 234.952 301.477 234.842C290.731 233.608 279.9 233.891 269.106 234.012C258.524 234.13 247.852 234.094 237.401 232.241C228.39 230.644 219.555 227.651 211.913 222.574C204.593 217.71 198.627 210.891 195.607 202.617C192.658 194.534 192.689 185.589 196.638 177.84C200.592 170.082 207.489 164.213 214.983 159.93C223.632 154.987 233.155 151.894 242.343 148.126C251.021 144.566 259.897 140.322 266.563 133.592C269.65 130.476 272.294 126.683 273.426 122.416C273.979 120.42 274.112 118.333 273.818 116.283C273.523 114.234 272.808 112.267 271.715 110.503C269.53 107.186 266.411 104.579 262.744 103.005C258.319 101.028 253.409 100.458 248.598 100.41C246.122 100.385 243.648 100.496 241.176 100.622C240.21 100.671 240.205 102.166 241.176 102.117H241.176Z" fill="#3F3D56"/>
        <path d="M194.8 344.775L188.756 345.968L181.238 323.421L190.159 321.66L194.8 344.775Z" fill="#FFB8B8"/>
        <path d="M197.509 350.28L178.02 354.128L177.971 353.883C177.772 352.895 177.772 351.879 177.97 350.891C178.168 349.903 178.56 348.964 179.124 348.126C179.688 347.289 180.413 346.57 181.258 346.01C182.102 345.45 183.049 345.061 184.045 344.864L184.046 344.864L195.949 342.514L197.509 350.28Z" fill="#2F2E41"/>
        <path d="M252.541 348.204L246.378 348.204L239.425 324.635L248.521 324.635L252.541 348.204Z" fill="#FFB8B8"/>
        <path d="M254.113 354.128L234.241 354.127V353.878C234.241 352.871 234.441 351.873 234.83 350.943C235.219 350.013 235.788 349.167 236.506 348.455C237.225 347.743 238.077 347.178 239.016 346.793C239.954 346.407 240.96 346.209 241.976 346.209H241.976L254.113 346.21L254.113 354.128Z" fill="#2F2E41"/>
        <path d="M237.83 280.888C238.322 280.276 238.673 279.564 238.857 278.803C239.042 278.042 239.056 277.25 238.898 276.483C238.741 275.716 238.416 274.993 237.946 274.364C237.476 273.735 236.873 273.215 236.178 272.843L223.866 225.628L213.157 230.407L228.627 275.315C228.073 276.513 227.981 277.871 228.369 279.131C228.757 280.392 229.598 281.467 230.732 282.154C231.866 282.841 233.215 283.092 234.524 282.858C235.832 282.625 237.008 281.924 237.83 280.888V280.888Z" fill="#FFB8B8"/>
        <path d="M226.747 233.539L214.845 236.326C214.506 236.405 214.154 236.411 213.813 236.344C213.472 236.276 213.149 236.136 212.868 235.934C212.586 235.731 212.351 235.471 212.18 235.171C212.009 234.87 211.905 234.537 211.875 234.193L210.842 222.148C210.443 220.428 210.748 218.621 211.69 217.124C212.633 215.626 214.136 214.56 215.869 214.159C217.603 213.759 219.426 214.056 220.939 214.986C222.452 215.916 223.532 217.403 223.941 219.121L228.44 230.315C228.568 230.635 228.626 230.979 228.608 231.324C228.591 231.669 228.499 232.005 228.338 232.311C228.177 232.617 227.952 232.885 227.677 233.097C227.403 233.309 227.085 233.46 226.747 233.539V233.539Z" fill="#2871FE"/>
        <path d="M186.144 340.5C185.625 340.501 185.121 340.323 184.719 339.998C184.316 339.672 184.04 339.219 183.936 338.714L177.939 310.176C177.566 308.379 177.555 306.526 177.907 304.724C178.259 302.922 178.967 301.208 179.99 299.678L198.881 271.582V250.525L220.813 245.625L220.908 245.701C232.284 254.912 231.63 266.267 231.56 267.145L253.114 336.538C253.218 336.874 253.241 337.229 253.182 337.575C253.122 337.921 252.982 338.249 252.772 338.531C252.561 338.813 252.287 339.043 251.971 339.201C251.655 339.359 251.306 339.442 250.952 339.442H244.48C244.027 339.443 243.585 339.31 243.21 339.058C242.836 338.806 242.546 338.449 242.379 338.032L219.149 283.02L191.81 305.329C191.591 305.508 191.418 305.736 191.308 305.996C191.197 306.255 191.151 306.537 191.174 306.817L193.695 337.492C193.746 338.074 193.564 338.653 193.189 339.104C192.815 339.555 192.276 339.842 191.69 339.903L186.4 340.486C186.315 340.496 186.23 340.5 186.144 340.5V340.5Z" fill="#2F2E41"/>
        <path d="M214.18 206.321C220.999 206.321 226.526 200.84 226.526 194.079C226.526 187.319 220.999 181.838 214.18 181.838C207.361 181.838 201.833 187.319 201.833 194.079C201.833 200.84 207.361 206.321 214.18 206.321Z" fill="#FFB8B8"/>
        <path d="M200.05 252.861C199.6 252.861 199.16 252.729 198.786 252.481C198.412 252.233 198.121 251.881 197.949 251.469C193.813 241.401 193.882 228.684 195.696 221.13C196.468 217.931 198.349 215.103 201.009 213.138C203.67 211.173 206.941 210.196 210.254 210.378H210.254C212.225 210.482 214.152 210.993 215.913 211.878C217.674 212.763 219.229 214.003 220.479 215.517C221.729 217.032 222.646 218.789 223.172 220.675C223.698 222.562 223.821 224.536 223.534 226.473C222.567 232.969 222.175 242.119 222.051 245.751C222.032 246.236 221.856 246.702 221.548 247.079C221.241 247.457 220.818 247.725 220.344 247.845L200.601 252.793C200.421 252.838 200.236 252.861 200.05 252.861V252.861Z" fill="#2871FE"/>
        <path d="M200.277 179.78C200.019 179.885 199.754 179.97 199.484 180.034L190.789 203.2L194.641 207.833L188.348 214.512L180.725 206.966C180.109 206.356 179.709 205.565 179.585 204.711C179.461 203.857 179.62 202.986 180.038 202.229L193.659 177.563C193.125 176.641 192.887 175.581 192.976 174.522C193.065 173.463 193.476 172.457 194.157 171.635C194.837 170.814 195.753 170.218 196.783 169.926C197.813 169.634 198.909 169.659 199.924 170C200.939 170.34 201.826 170.978 202.466 171.83C203.106 172.682 203.469 173.707 203.508 174.769C203.546 175.831 203.257 176.879 202.68 177.774C202.103 178.669 201.265 179.369 200.277 179.78V179.78Z" fill="#FFB8B8"/>
        <path d="M186.124 213.848L193.059 203.861C193.256 203.577 193.513 203.338 193.812 203.161C194.111 202.985 194.444 202.874 194.79 202.836C195.136 202.798 195.486 202.835 195.816 202.944C196.147 203.053 196.449 203.231 196.704 203.466L205.625 211.706C207.086 212.715 208.084 214.257 208.399 215.995C208.715 217.732 208.323 219.523 207.309 220.974C206.295 222.425 204.742 223.418 202.991 223.736C201.239 224.053 199.432 223.669 197.966 222.667L187.053 217.365C186.74 217.214 186.464 216.997 186.244 216.73C186.024 216.462 185.864 216.151 185.776 215.818C185.688 215.484 185.674 215.135 185.734 214.795C185.794 214.456 185.927 214.133 186.124 213.848H186.124Z" fill="#2871FE"/>
        <path d="M213.469 208.11C212.579 207.132 213.099 205.451 213.922 204.408C214.745 203.364 215.857 202.477 216.182 201.153C216.735 198.899 214.672 196.844 212.615 196.115C210.558 195.387 208.253 195.33 206.442 194.053C203.696 192.117 203.07 187.704 204.648 184.604C206.226 181.505 209.524 179.728 212.797 179.462C216.07 179.197 219.323 180.252 222.319 181.696C225.216 183.093 228.011 184.912 230.047 187.534C232.083 190.157 233.281 193.681 232.693 197.04C231.974 201.142 228.733 204.308 225.131 205.854C221.529 207.4 217.571 207.604 213.697 207.788L213.469 208.11Z" fill="#2F2E41"/>
        <path d="M227.215 184.738C231.001 181.021 236.068 178.866 241.393 178.707C246.719 178.548 251.907 180.398 255.912 183.883C262.594 189.698 265.142 199.274 272.156 204.691C278.471 209.568 287.953 209.931 294.629 205.552C291.581 209.083 288.48 212.66 284.577 215.235C280.675 217.809 275.798 219.296 271.245 218.192C265.9 216.896 262.01 212.383 258.99 207.823C255.97 203.262 253.308 198.267 248.928 194.963C245.609 192.475 241.553 191.147 237.392 191.185C234.844 191.217 232.244 191.759 229.783 191.108C227.321 190.456 225.06 187.967 225.88 185.576L227.215 184.738Z" fill="#2F2E41"/>
    </g>
    <defs>
        <clipPath id="clip0">
            <rect width="429.301" height="355" fill="white" transform="translate(0.357178)"/>
        </clipPath>
    </defs>
</svg>
